<?xml version="1.0" encoding="utf-8"?>
<!-- Generator: Adobe Illustrator 24.0.0, SVG Export Plug-In . SVG Version: 6.00 Build 0)  -->
<svg version="1.1" id="Слой_1" xmlns="http://www.w3.org/2000/svg" xmlns:xlink="http://www.w3.org/1999/xlink" x="0px" y="0px"
	 viewBox="0 0 51 57" style="enable-background:new 0 0 51 57;" xml:space="preserve">
<style type="text/css">
	.st0{fill:#5CFF60;}
</style>
<g>
	<g>
		<path class="st0" d="M20.81,34.16c0.09,0.16,0.26,0.25,0.43,0.25c0.08,0,0.17-0.02,0.25-0.07l11.98-6.92
			c0.15-0.09,0.25-0.25,0.25-0.43s-0.1-0.34-0.25-0.43l-9.46-5.43c-0.24-0.14-0.55-0.06-0.68,0.18c-0.14,0.24-0.05,0.54,0.18,0.68
			l8.71,5l-11.23,6.49C20.76,33.62,20.67,33.92,20.81,34.16z"/>
		<path class="st0" d="M21.24,19.58c-0.28,0-0.5,0.22-0.5,0.5v9.76c0,0.28,0.22,0.5,0.5,0.5c0.28,0,0.5-0.22,0.5-0.5v-9.76
			C21.74,19.8,21.53,19.58,21.24,19.58z"/>
		<path class="st0" d="M0.94,42.02c0,0.28,0.22,0.5,0.5,0.5s0.5-0.22,0.5-0.5V15.2l11.39,6.55c0.08,0.04,0.16,0.07,0.25,0.07
			c0.17,0,0.34-0.09,0.43-0.25c0.14-0.24,0.06-0.54-0.18-0.68L1.69,13.9c-0.01-0.01-0.02,0-0.03-0.01
			c-0.03-0.01-0.06-0.02-0.09-0.03c-0.03-0.01-0.07-0.02-0.1-0.02c-0.01,0-0.02-0.01-0.03-0.01c-0.02,0-0.04,0.01-0.06,0.01
			c-0.04,0-0.07,0.01-0.1,0.02S1.22,13.89,1.2,13.9c-0.03,0.02-0.05,0.03-0.08,0.05C1.09,13.97,1.07,14,1.04,14.03
			C1.03,14.06,1.01,14.07,1,14.09c-0.01,0.01,0,0.02-0.01,0.03c-0.01,0.03-0.02,0.06-0.03,0.09s-0.02,0.07-0.02,0.1
			c0,0.01-0.01,0.02-0.01,0.03L0.94,42.02L0.94,42.02z"/>
		<path class="st0" d="M50.08,21.97c0-0.28-0.22-0.5-0.5-0.5s-0.5,0.22-0.5,0.5v13.52c0,0.28,0.22,0.5,0.5,0.5s0.5-0.22,0.5-0.5
			V21.97z"/>
		<path class="st0" d="M25.26,56.29c0.01,0,0.02,0,0.02,0.01c0.07,0.03,0.14,0.06,0.22,0.06l0,0l0,0l0,0l0,0l0,0l0,0
			c0.08,0,0.15-0.02,0.22-0.06c0.01,0,0.02,0,0.02-0.01l0,0l24.07-13.84c0.24-0.14,0.32-0.44,0.18-0.68s-0.44-0.32-0.68-0.18
			L26.01,55V40.33c0-0.28-0.22-0.5-0.5-0.5c-0.28,0-0.5,0.22-0.5,0.5v14.66L8.36,45.43c-0.24-0.14-0.54-0.06-0.68,0.18
			s-0.06,0.54,0.18,0.68L25.26,56.29L25.26,56.29z"/>
		<path class="st0" d="M50.07,14.24c-0.01-0.03-0.02-0.07-0.03-0.1c-0.01-0.02-0.01-0.04-0.02-0.06c-0.01-0.01-0.01-0.01-0.02-0.02
			c-0.02-0.03-0.04-0.05-0.07-0.07c-0.02-0.02-0.05-0.05-0.08-0.07c-0.01-0.01-0.01-0.01-0.02-0.02L25.76,0.06
			c-0.02-0.01-0.04-0.01-0.06-0.02c-0.03-0.01-0.06-0.03-0.09-0.03C25.58,0,25.55,0,25.51,0c-0.03,0-0.06,0-0.09,0.01
			c-0.04,0.01-0.07,0.02-0.1,0.03c-0.02,0.01-0.04,0.01-0.06,0.02l-17.39,10c-0.24,0.14-0.32,0.44-0.18,0.68
			c0.09,0.16,0.26,0.25,0.43,0.25c0.08,0,0.17-0.02,0.25-0.07l17.14-9.85l23.07,13.27l-10.76,6.19c-0.24,0.14-0.32,0.44-0.18,0.68
			c0.09,0.16,0.26,0.25,0.43,0.25c0.08,0,0.17-0.02,0.25-0.07l11.51-6.62l0,0l0,0c0.07-0.04,0.13-0.1,0.17-0.17
			c0-0.01,0.01-0.01,0.02-0.02c0.01-0.02,0.01-0.04,0.02-0.06c0.01-0.03,0.03-0.06,0.03-0.1c0.01-0.03,0.01-0.06,0.01-0.09
			C50.07,14.3,50.07,14.27,50.07,14.24z"/>
	</g>
</g>
</svg>
