<?xml version="1.0" encoding="utf-8"?>
<!-- Generator: Adobe Illustrator 24.0.0, SVG Export Plug-In . SVG Version: 6.00 Build 0)  -->
<svg version="1.1" id="Слой_1" xmlns="http://www.w3.org/2000/svg" xmlns:xlink="http://www.w3.org/1999/xlink" x="0px" y="0px"
	 viewBox="0 0 51 57" style="enable-background:new 0 0 51 57;" xml:space="preserve">
<style type="text/css">
	.st0{fill:#5CFF60;}
</style>
<g>
	<g>
		<path class="st0" d="M50.33,35.18c-0.28,0-0.5,0.22-0.5,0.5c0,1.19-0.97,2.16-2.16,2.16c-0.28,0-0.5,0.22-0.5,0.5
			s0.22,0.5,0.5,0.5c1.74,0,3.16-1.42,3.16-3.16C50.83,35.4,50.61,35.18,50.33,35.18z"/>
		<path class="st0" d="M50.33,10.14c-0.28,0-0.5,0.22-0.5,0.5V29.1c0,0.28,0.22,0.5,0.5,0.5s0.5-0.22,0.5-0.5V10.64
			C50.83,10.37,50.61,10.14,50.33,10.14z"/>
		<path class="st0" d="M47.67,0H14.76c-0.28,0-0.5,0.22-0.5,0.5S14.48,1,14.76,1h32.91c1.19,0,2.16,0.97,2.16,2.16
			c0,0.28,0.22,0.5,0.5,0.5s0.5-0.22,0.5-0.5C50.83,1.42,49.41,0,47.67,0z"/>
		<path class="st0" d="M3.33,38.84h34.72c0.28,0,0.5-0.22,0.5-0.5s-0.22-0.5-0.5-0.5H3.33c-1.19,0-2.16-0.97-2.16-2.16V3.16
			C1.17,1.97,2.14,1,3.33,1H5.4c0.28,0,0.5-0.22,0.5-0.5S5.68,0,5.4,0H3.33C1.59,0,0.17,1.42,0.17,3.16v32.52
			C0.17,37.42,1.59,38.84,3.33,38.84z"/>
		<path class="st0" d="M20.18,26.11c0.09,0.16,0.26,0.25,0.43,0.25c0.08,0,0.17-0.02,0.25-0.07l11.98-6.92
			c0.15-0.09,0.25-0.25,0.25-0.43s-0.1-0.34-0.25-0.43l-9.46-5.43c-0.24-0.14-0.55-0.06-0.68,0.18c-0.14,0.24-0.05,0.54,0.18,0.68
			l8.71,5l-11.23,6.48C20.13,25.56,20.04,25.87,20.18,26.11z"/>
		<path class="st0" d="M20.61,11.53c-0.28,0-0.5,0.22-0.5,0.5v9.76c0,0.28,0.22,0.5,0.5,0.5s0.5-0.22,0.5-0.5v-9.76
			C21.11,11.75,20.89,11.53,20.61,11.53z"/>
	</g>
</g>
</svg>
