<?xml version="1.0" encoding="utf-8"?>
<!-- Generator: Adobe Illustrator 24.0.0, SVG Export Plug-In . SVG Version: 6.00 Build 0)  -->
<svg version="1.1" id="Слой_1" xmlns="http://www.w3.org/2000/svg" xmlns:xlink="http://www.w3.org/1999/xlink" x="0px" y="0px"
	 viewBox="0 0 60 72" style="enable-background:new 0 0 60 72;" xml:space="preserve">
<style type="text/css">
	.st0{fill:#5CFF60;}
</style>
<g>
	<g>
		<path class="st0" d="M59,0.5C59,0.2,58.8,0,58.5,0h-57C1.2,0,1,0.2,1,0.5v35.6c0,0.3,0.2,0.5,0.5,0.5h57c0.3,0,0.5-0.2,0.5-0.5
			V9.5C59,9.3,58.8,9,58.5,9S58,9.3,58,9.5v26H2V1h56.5C58.8,1,59,0.8,59,0.5z"/>
		<path class="st0" d="M22,7.8c0.3,0,0.5-0.2,0.5-0.5S22.3,6.8,22,6.8H7.2C6.9,6.8,6.7,7,6.7,7.3v21.6c0,0.3,0.2,0.5,0.5,0.5H22
			c0.3,0,0.5-0.2,0.5-0.5V12.8c0-0.3-0.2-0.5-0.5-0.5s-0.5,0.2-0.5,0.5v15.6H7.7V7.8H22z"/>
		<path class="st0" d="M29.5,28.9c0,0.3,0.2,0.5,0.5,0.5h20.3c0.3,0,0.5-0.2,0.5-0.5s-0.2-0.5-0.5-0.5H30
			C29.7,28.4,29.5,28.7,29.5,28.9z"/>
		<path class="st0" d="M30.5,18.6h12.8c0.3,0,0.5-0.2,0.5-0.5s-0.2-0.5-0.5-0.5H30.5c-0.3,0-0.5,0.2-0.5,0.5S30.2,18.6,30.5,18.6z"
			/>
	</g>
</g>
</svg>
