<?xml version="1.0" encoding="utf-8"?>
<!-- Generator: Adobe Illustrator 24.0.0, SVG Export Plug-In . SVG Version: 6.00 Build 0)  -->
<svg version="1.1" id="Слой_1" xmlns="http://www.w3.org/2000/svg" xmlns:xlink="http://www.w3.org/1999/xlink" x="0px" y="0px"
	 viewBox="0 0 62.35 66" style="enable-background:new 0 0 62.35 66;" xml:space="preserve">
<style type="text/css">
	.st0{fill:#5CFF60;}
</style>
<g>
	<g>
		<path class="st0" d="M62.35,65.5V54.7c0-0.28-0.22-0.5-0.5-0.5H36.57c-0.1,0-0.2,0.03-0.28,0.08l-0.08,0.06
			c0.17-0.34,0.28-0.73,0.28-1.14v-6.12v-7.69v-3.2h1.9c1.73,0,3.15-1.41,3.15-3.15v-3.95c0-1.61-1.22-2.93-2.78-3.11
			c0.07-0.17,0.11-0.36,0.11-0.56v-1.79c0-0.38-0.14-0.74-0.39-1.02l-1.03-1.15c-0.25-0.28-0.25-0.71,0-0.99l1.03-1.15
			c0.25-0.28,0.39-0.64,0.39-1.02v-1.25c0-0.84-0.68-1.52-1.52-1.52h-0.59L34.71,1.05C34.62,0.44,33.96,0,33.13,0h-3.9
			c-0.83,0-1.49,0.44-1.58,1.05l-2.05,14.48h-0.59c-0.84,0-1.52,0.68-1.52,1.52v1.25c0,0.38,0.14,0.74,0.39,1.02l1.03,1.15
			c0.25,0.28,0.25,0.71,0,0.99l-1.03,1.15c-0.25,0.28-0.39,0.64-0.39,1.02v1.79c0,0.2,0.04,0.38,0.11,0.56
			c-1.56,0.18-2.78,1.5-2.78,3.11v3.95c0,1.74,1.41,3.15,3.15,3.15h1.93c-0.01,0.18-0.03,0.35-0.03,0.54v7.69v7.69v1.1
			c0,0.37,0.1,0.72,0.25,1.05c-0.05-0.02-0.1-0.05-0.15-0.05H0.5c-0.28,0-0.5,0.22-0.5,0.5v10.8C0,65.78,0.22,66,0.5,66h61.35
			C62.13,66,62.35,65.78,62.35,65.5z M35.49,51.4v1.79c0,0.86-0.7,1.56-1.56,1.56h-0.52c0.01-0.01,0.02-0.03,0.03-0.04
			c0.07-0.09,0.13-0.18,0.2-0.27c0.15-0.2,0.29-0.4,0.43-0.61c0.08-0.11,0.15-0.23,0.23-0.34c0.12-0.19,0.25-0.38,0.36-0.57
			c0.08-0.12,0.15-0.25,0.22-0.37c0.11-0.19,0.22-0.39,0.32-0.59c0.07-0.13,0.13-0.25,0.19-0.38C35.43,51.52,35.46,51.46,35.49,51.4
			z M35.49,43.72v3.36c0,0.39-0.03,0.76-0.08,1.13c-0.02,0.12-0.05,0.24-0.07,0.35c-0.04,0.24-0.08,0.48-0.14,0.72
			c-0.04,0.14-0.09,0.27-0.13,0.41c-0.06,0.21-0.13,0.42-0.2,0.62c-0.05,0.14-0.12,0.28-0.18,0.41c-0.08,0.19-0.16,0.38-0.25,0.57
			c-0.07,0.14-0.15,0.27-0.22,0.41c-0.1,0.18-0.19,0.36-0.29,0.53c-0.08,0.14-0.17,0.27-0.26,0.4c-0.11,0.17-0.21,0.34-0.32,0.5
			c-0.09,0.14-0.19,0.27-0.28,0.4c-0.11,0.16-0.23,0.32-0.34,0.48c-0.1,0.13-0.2,0.26-0.3,0.39c-0.09,0.11-0.17,0.23-0.26,0.34
			h-3.73c-0.12,0-0.24-0.02-0.36-0.05c0.11-0.24,0.23-0.47,0.35-0.7c0.11-0.22,0.22-0.43,0.35-0.64c0.19-0.32,0.39-0.62,0.59-0.93
			c0.12-0.19,0.24-0.38,0.37-0.56c0.24-0.34,0.49-0.67,0.74-1c0.11-0.14,0.21-0.28,0.31-0.42c0.36-0.46,0.72-0.92,1.08-1.37
			c0.32-0.4,0.63-0.8,0.94-1.2c0.09-0.12,0.18-0.24,0.28-0.37c0.22-0.29,0.44-0.58,0.65-0.87c0.11-0.15,0.21-0.31,0.32-0.46
			c0.18-0.27,0.36-0.54,0.53-0.81c0.1-0.16,0.2-0.33,0.3-0.49c0.16-0.27,0.31-0.55,0.45-0.83C35.36,43.94,35.43,43.83,35.49,43.72z
			 M35.49,39.39c0,3.5-2.15,6.2-4.42,9.06c-0.36,0.46-0.73,0.92-1.09,1.39c-0.11,0.15-0.22,0.3-0.33,0.45
			c-0.25,0.33-0.5,0.67-0.74,1.01c-0.13,0.19-0.26,0.39-0.38,0.58c-0.21,0.31-0.41,0.63-0.6,0.95c-0.13,0.22-0.24,0.44-0.36,0.66
			c-0.12,0.22-0.25,0.43-0.36,0.66c-0.21-0.27-0.33-0.6-0.33-0.95v-1.1c0-4.46,2.53-7.64,4.98-10.72c0.35-0.44,0.69-0.87,1.03-1.31
			c0.09-0.12,0.18-0.24,0.27-0.37c0.24-0.31,0.47-0.63,0.7-0.94c0.12-0.16,0.22-0.33,0.33-0.5c0.19-0.28,0.37-0.55,0.54-0.84
			c0.11-0.19,0.21-0.38,0.31-0.57c0.12-0.23,0.26-0.45,0.37-0.68h0.08V39.39z M28.63,1.2C28.66,1.14,28.87,1,29.23,1h3.9
			c0.35,0,0.56,0.14,0.59,0.2l2.03,14.34H26.6L28.63,1.2z M24.49,23.63c0-0.13,0.05-0.25,0.13-0.35l1.03-1.15
			c0.6-0.66,0.6-1.66,0-2.33l-1.03-1.15c-0.09-0.1-0.13-0.22-0.13-0.35v-1.25c0-0.29,0.23-0.52,0.52-0.52h1.02h10.3h1.02
			c0.29,0,0.52,0.23,0.52,0.52v1.25c0,0.13-0.05,0.25-0.13,0.35l-1.03,1.15c-0.6,0.66-0.6,1.66,0,2.33l1.03,1.15
			c0.09,0.1,0.13,0.22,0.13,0.35v1.79c0,0.29-0.23,0.52-0.52,0.52H25.01c-0.29,0-0.52-0.23-0.52-0.52V23.63z M21.82,33.04v-3.95
			c0-1.18,0.96-2.15,2.15-2.15h1.04h12.34h1.04c1.18,0,2.15,0.96,2.15,2.15v3.95c0,1.18-0.96,2.15-2.15,2.15h-2.4h-0.9h-5.41h-3.26
			h-2.45C22.78,35.19,21.82,34.23,21.82,33.04z M26.87,39.49v-2.77c0-0.18,0.01-0.36,0.02-0.54h1.82c-0.01,0.01-0.01,0.02-0.02,0.03
			c-0.3,0.43-0.58,0.89-0.86,1.36c-0.06,0.1-0.12,0.21-0.18,0.31c-0.27,0.49-0.53,1-0.76,1.53C26.89,39.45,26.88,39.47,26.87,39.49z
			 M26.87,47.17v-2.76c0-0.44,0.03-0.86,0.07-1.27c0.02-0.14,0.05-0.27,0.07-0.41c0.04-0.27,0.08-0.54,0.13-0.79
			c0.03-0.16,0.08-0.3,0.12-0.46c0.06-0.23,0.12-0.46,0.19-0.67c0.05-0.16,0.11-0.3,0.17-0.46c0.08-0.2,0.15-0.41,0.23-0.61
			c0.07-0.15,0.14-0.3,0.21-0.44c0.09-0.19,0.17-0.38,0.27-0.56c0.08-0.15,0.16-0.28,0.24-0.43c0.1-0.17,0.19-0.35,0.29-0.52
			c0.08-0.14,0.17-0.27,0.26-0.41c0.1-0.16,0.21-0.33,0.31-0.48c0.09-0.13,0.18-0.26,0.27-0.39c0.08-0.11,0.15-0.22,0.23-0.33h4.32
			c-0.07,0.13-0.13,0.26-0.21,0.39c-0.09,0.17-0.19,0.33-0.29,0.5c-0.16,0.27-0.34,0.53-0.52,0.79c-0.1,0.15-0.2,0.3-0.31,0.45
			c-0.21,0.29-0.43,0.58-0.65,0.87c-0.09,0.12-0.18,0.24-0.27,0.35c-0.31,0.4-0.63,0.8-0.95,1.21c-0.17,0.22-0.35,0.44-0.52,0.66
			c-0.06,0.07-0.12,0.15-0.17,0.22c-0.13,0.16-0.25,0.32-0.37,0.48c-0.07,0.09-0.13,0.17-0.2,0.26c-0.12,0.16-0.24,0.31-0.36,0.47
			c-0.06,0.08-0.12,0.16-0.18,0.25c-0.15,0.2-0.29,0.4-0.43,0.6c-0.03,0.04-0.06,0.08-0.09,0.12c-0.16,0.24-0.33,0.48-0.48,0.73
			c-0.05,0.07-0.09,0.15-0.14,0.22c-0.11,0.18-0.22,0.36-0.32,0.54c-0.05,0.09-0.1,0.18-0.15,0.27c-0.1,0.18-0.19,0.35-0.28,0.53
			c-0.05,0.09-0.09,0.18-0.14,0.27c-0.1,0.21-0.2,0.43-0.3,0.65C26.91,47.08,26.89,47.13,26.87,47.17z M61.35,65H1v-9.8h24.81
			l1.67,1.12c0.08,0.05,0.18,0.08,0.28,0.08h7c0.1,0,0.2-0.03,0.28-0.08l1.67-1.12h24.64V65z"/>
		<path class="st0" d="M22.53,50.29c0.1,0.15,0.26,0.23,0.42,0.23c0.09,0,0.19-0.03,0.27-0.08c0.23-0.15,0.3-0.46,0.15-0.69
			l-3.27-5.02c-0.15-0.23-0.46-0.3-0.69-0.15c-0.23,0.15-0.3,0.46-0.15,0.69L22.53,50.29z"/>
		<path class="st0" d="M14.6,51.09l6.94,2.94c0.06,0.03,0.13,0.04,0.19,0.04c0.19,0,0.38-0.11,0.46-0.3
			c0.11-0.25-0.01-0.55-0.27-0.66l-6.94-2.94c-0.25-0.11-0.55,0.01-0.66,0.26C14.23,50.69,14.35,50.98,14.6,51.09z"/>
		<path class="st0" d="M38.67,53.65c0.04,0.24,0.25,0.42,0.49,0.42c0.03,0,0.06,0,0.08-0.01l8.54-1.46
			c0.27-0.05,0.46-0.31,0.41-0.58c-0.05-0.27-0.3-0.46-0.58-0.41l-8.54,1.46C38.81,53.12,38.63,53.38,38.67,53.65z"/>
		<path class="st0" d="M39.95,50.07c0.1,0.09,0.22,0.13,0.34,0.13c0.14,0,0.27-0.06,0.37-0.17l3.95-4.37
			c0.19-0.21,0.17-0.52-0.04-0.71c-0.21-0.18-0.52-0.17-0.71,0.04l-3.95,4.37C39.73,49.57,39.74,49.88,39.95,50.07z"/>
	</g>
</g>
</svg>
