<?xml version="1.0" encoding="utf-8"?>
<!-- Generator: Adobe Illustrator 24.0.0, SVG Export Plug-In . SVG Version: 6.00 Build 0)  -->
<svg version="1.1" id="Слой_1" xmlns="http://www.w3.org/2000/svg" xmlns:xlink="http://www.w3.org/1999/xlink" x="0px" y="0px"
	 viewBox="0 0 66 66" style="enable-background:new 0 0 66 66;" xml:space="preserve">
<style type="text/css">
	.st0{fill:#5CFF60;}
</style>
<g>
	<g>
		<path class="st0" d="M64.2,65.5V54.7c0-0.3-0.2-0.5-0.5-0.5H38.4c-0.1,0-0.2,0-0.3,0.1L38,54.3c0.2-0.3,0.3-0.7,0.3-1.1v-6.1v-7.7
			v-3.2h1.9c1.7,0,3.2-1.4,3.2-3.2v-4c0-1.6-1.2-2.9-2.8-3.1c0.1-0.2,0.1-0.4,0.1-0.6v-1.8c0-0.4-0.1-0.7-0.4-1l-1-1.1
			c-0.3-0.3-0.3-0.7,0-1l1-1.1c0.3-0.3,0.4-0.6,0.4-1v-1.3c0-0.8-0.7-1.5-1.5-1.5h-0.6L36.5,1c-0.1-0.6-0.8-1-1.6-1h-3.9
			c-0.8,0-1.5,0.4-1.6,1l-2,14.5h-0.6c-0.8,0-1.5,0.7-1.5,1.5v1.3c0,0.4,0.1,0.7,0.4,1l1,1.1c0.3,0.3,0.3,0.7,0,1l-1,1.1
			c-0.3,0.3-0.4,0.6-0.4,1v1.8c0,0.2,0,0.4,0.1,0.6c-1.6,0.2-2.8,1.5-2.8,3.1V33c0,1.7,1.4,3.2,3.1,3.2h1.9c0,0.2,0,0.3,0,0.5v7.7
			v7.7v1.1c0,0.4,0.1,0.7,0.3,1c0,0-0.1,0-0.1,0H2.3c-0.3,0-0.5,0.2-0.5,0.5v10.8C1.8,65.8,2,66,2.3,66h61.3
			C64,66,64.2,65.8,64.2,65.5z M37.3,51.4v1.8c0,0.9-0.7,1.6-1.6,1.6h-0.5c0,0,0,0,0,0c0.1-0.1,0.1-0.2,0.2-0.3
			c0.2-0.2,0.3-0.4,0.4-0.6c0.1-0.1,0.2-0.2,0.2-0.3c0.1-0.2,0.3-0.4,0.4-0.6c0.1-0.1,0.2-0.3,0.2-0.4c0.1-0.2,0.2-0.4,0.3-0.6
			c0.1-0.1,0.1-0.3,0.2-0.4C37.3,51.5,37.3,51.5,37.3,51.4z M37.3,43.7v3.4c0,0.4,0,0.8-0.1,1.1c0,0.1,0,0.2-0.1,0.3
			c0,0.2-0.1,0.5-0.1,0.7c0,0.1-0.1,0.3-0.1,0.4c-0.1,0.2-0.1,0.4-0.2,0.6c0,0.1-0.1,0.3-0.2,0.4c-0.1,0.2-0.2,0.4-0.3,0.6
			c-0.1,0.1-0.2,0.3-0.2,0.4c-0.1,0.2-0.2,0.4-0.3,0.5c-0.1,0.1-0.2,0.3-0.3,0.4c-0.1,0.2-0.2,0.3-0.3,0.5c-0.1,0.1-0.2,0.3-0.3,0.4
			c-0.1,0.2-0.2,0.3-0.3,0.5c-0.1,0.1-0.2,0.3-0.3,0.4c-0.1,0.1-0.2,0.2-0.3,0.3h-3.7c-0.1,0-0.2,0-0.4,0c0.1-0.2,0.2-0.5,0.4-0.7
			c0.1-0.2,0.2-0.4,0.4-0.6c0.2-0.3,0.4-0.6,0.6-0.9c0.1-0.2,0.2-0.4,0.4-0.6c0.2-0.3,0.5-0.7,0.7-1c0.1-0.1,0.2-0.3,0.3-0.4
			c0.4-0.5,0.7-0.9,1.1-1.4c0.3-0.4,0.6-0.8,0.9-1.2c0.1-0.1,0.2-0.2,0.3-0.4c0.2-0.3,0.4-0.6,0.7-0.9c0.1-0.2,0.2-0.3,0.3-0.5
			c0.2-0.3,0.4-0.5,0.5-0.8c0.1-0.2,0.2-0.3,0.3-0.5c0.2-0.3,0.3-0.5,0.5-0.8C37.2,43.9,37.3,43.8,37.3,43.7z M37.3,39.4
			c0,3.5-2.2,6.2-4.4,9.1c-0.4,0.5-0.7,0.9-1.1,1.4c-0.1,0.2-0.2,0.3-0.3,0.5c-0.3,0.3-0.5,0.7-0.7,1c-0.1,0.2-0.3,0.4-0.4,0.6
			c-0.2,0.3-0.4,0.6-0.6,1c-0.1,0.2-0.2,0.4-0.4,0.7s-0.3,0.4-0.4,0.7c-0.2-0.3-0.3-0.6-0.3-1v-1.1c0-4.5,2.5-7.6,5-10.7
			c0.3-0.4,0.7-0.9,1-1.3c0.1-0.1,0.2-0.2,0.3-0.4c0.2-0.3,0.5-0.6,0.7-0.9c0.1-0.2,0.2-0.3,0.3-0.5c0.2-0.3,0.4-0.5,0.5-0.8
			c0.1-0.2,0.2-0.4,0.3-0.6c0.1-0.2,0.3-0.5,0.4-0.7h0.1C37.3,36.2,37.3,39.4,37.3,39.4z M30.5,1.2c0-0.1,0.2-0.2,0.6-0.2H35
			c0.3,0,0.6,0.1,0.6,0.2l2,14.3h-9.1L30.5,1.2z M26.3,23.6c0-0.1,0-0.3,0.1-0.4l1-1.1c0.6-0.7,0.6-1.7,0-2.3l-1-1.1
			c-0.1-0.1-0.1-0.2-0.1-0.4V17c0-0.3,0.2-0.5,0.5-0.5h1h10.3h1c0.3,0,0.5,0.2,0.5,0.5v1.3c0,0.1,0,0.3-0.1,0.4l-1,1.1
			c-0.6,0.7-0.6,1.7,0,2.3l1,1.1c0.1,0.1,0.1,0.2,0.1,0.4v1.8c0,0.3-0.2,0.5-0.5,0.5H26.8c-0.3,0-0.5-0.2-0.5-0.5V23.6z M23.6,33v-4
			c0-1.2,1-2.1,2.1-2.1h1h12.3h1c1.2,0,2.2,1,2.2,2.1v4c0,1.2-1,2.2-2.2,2.2h-2.4h-0.9h-5.4h-3.3h-2.5C24.6,35.2,23.6,34.2,23.6,33z
			 M28.7,39.5v-2.8c0-0.2,0-0.4,0-0.5h1.8c0,0,0,0,0,0c-0.3,0.4-0.6,0.9-0.9,1.4c-0.1,0.1-0.1,0.2-0.2,0.3
			C29.2,38.4,28.9,38.9,28.7,39.5C28.7,39.5,28.7,39.5,28.7,39.5z M28.7,47.2v-2.8c0-0.4,0-0.9,0.1-1.3c0-0.1,0-0.3,0.1-0.4
			c0-0.3,0.1-0.5,0.1-0.8c0-0.2,0.1-0.3,0.1-0.5c0.1-0.2,0.1-0.5,0.2-0.7c0-0.2,0.1-0.3,0.2-0.5c0.1-0.2,0.1-0.4,0.2-0.6
			c0.1-0.2,0.1-0.3,0.2-0.4c0.1-0.2,0.2-0.4,0.3-0.6c0.1-0.2,0.2-0.3,0.2-0.4c0.1-0.2,0.2-0.3,0.3-0.5c0.1-0.1,0.2-0.3,0.3-0.4
			c0.1-0.2,0.2-0.3,0.3-0.5c0.1-0.1,0.2-0.3,0.3-0.4c0.1-0.1,0.1-0.2,0.2-0.3h4.3c-0.1,0.1-0.1,0.3-0.2,0.4
			c-0.1,0.2-0.2,0.3-0.3,0.5c-0.2,0.3-0.3,0.5-0.5,0.8c-0.1,0.2-0.2,0.3-0.3,0.5c-0.2,0.3-0.4,0.6-0.7,0.9c-0.1,0.1-0.2,0.2-0.3,0.3
			c-0.3,0.4-0.6,0.8-1,1.2c-0.2,0.2-0.4,0.4-0.5,0.7c-0.1,0.1-0.1,0.2-0.2,0.2c-0.1,0.2-0.3,0.3-0.4,0.5c-0.1,0.1-0.1,0.2-0.2,0.3
			c-0.1,0.2-0.2,0.3-0.4,0.5c-0.1,0.1-0.1,0.2-0.2,0.3c-0.1,0.2-0.3,0.4-0.4,0.6c0,0-0.1,0.1-0.1,0.1c-0.2,0.2-0.3,0.5-0.5,0.7
			c0,0.1-0.1,0.2-0.1,0.2c-0.1,0.2-0.2,0.4-0.3,0.5c0,0.1-0.1,0.2-0.1,0.3c-0.1,0.2-0.2,0.3-0.3,0.5c0,0.1-0.1,0.2-0.1,0.3
			c-0.1,0.2-0.2,0.4-0.3,0.7C28.7,47.1,28.7,47.1,28.7,47.2z M63.2,65H2.8v-9.8h24.8l1.7,1.1c0.1,0,0.2,0.1,0.3,0.1h7
			c0.1,0,0.2,0,0.3-0.1l1.7-1.1h24.6V65z"/>
		<path class="st0" d="M24.4,50.3c0.1,0.2,0.3,0.2,0.4,0.2c0.1,0,0.2,0,0.3-0.1c0.2-0.2,0.3-0.5,0.1-0.7l-3.3-5
			c-0.1-0.2-0.5-0.3-0.7-0.2c-0.2,0.2-0.3,0.5-0.1,0.7L24.4,50.3z"/>
		<path class="st0" d="M16.4,51.1l6.9,2.9c0.1,0,0.1,0,0.2,0c0.2,0,0.4-0.1,0.5-0.3c0.1-0.3,0-0.5-0.3-0.7l-6.9-2.9
			c-0.3-0.1-0.5,0-0.7,0.3C16.1,50.7,16.2,51,16.4,51.1z"/>
		<path class="st0" d="M40.5,53.7c0,0.2,0.3,0.4,0.5,0.4c0,0,0.1,0,0.1,0l8.5-1.5c0.3,0,0.5-0.3,0.4-0.6s-0.3-0.5-0.6-0.4l-8.5,1.5
			C40.6,53.1,40.5,53.4,40.5,53.7z"/>
		<path class="st0" d="M41.8,50.1c0.1,0.1,0.2,0.1,0.3,0.1c0.1,0,0.3-0.1,0.4-0.2l4-4.4c0.2-0.2,0.2-0.5,0-0.7
			c-0.2-0.2-0.5-0.2-0.7,0l-4,4.4C41.6,49.6,41.6,49.9,41.8,50.1z"/>
	</g>
</g>
</svg>
