<?xml version="1.0" encoding="utf-8"?>
<!-- Generator: Adobe Illustrator 24.0.0, SVG Export Plug-In . SVG Version: 6.00 Build 0)  -->
<svg version="1.1" id="Слой_1" xmlns="http://www.w3.org/2000/svg" xmlns:xlink="http://www.w3.org/1999/xlink" x="0px" y="0px"
	 viewBox="0 0 39.66 39.66" style="enable-background:new 0 0 39.66 39.66;" xml:space="preserve">
<style type="text/css">
	.st0{fill:#FFFFFF;}
</style>
<g>
	<path class="st0" d="M20.01,11.34c-4.54,0-8.23,3.69-8.23,8.23c0,1.8,0.58,3.47,1.57,4.83l-1.03,3.06l3.16-1.01
		c1.3,0.86,2.86,1.36,4.53,1.36c4.54,0,8.23-3.69,8.23-8.23C28.25,15.03,24.55,11.34,20.01,11.34z M24.93,23.33
		c-0.23,0.58-1.28,1.11-1.75,1.14c-0.46,0.02-0.48,0.36-3.01-0.74c-2.53-1.11-4.05-3.8-4.17-3.97c-0.12-0.17-0.98-1.41-0.93-2.65
		c0.05-1.24,0.72-1.83,0.96-2.07c0.24-0.24,0.52-0.3,0.68-0.29c0.17,0.01,0.34,0.03,0.48,0.04c0.15,0.01,0.36-0.07,0.55,0.44
		c0.19,0.51,0.65,1.77,0.71,1.9c0.06,0.13,0.09,0.28,0,0.44c-0.09,0.17-0.14,0.27-0.27,0.41c-0.13,0.14-0.28,0.32-0.4,0.43
		c-0.13,0.12-0.27,0.25-0.13,0.51c0.14,0.26,0.61,1.1,1.34,1.8c0.93,0.9,1.74,1.19,1.98,1.33c0.25,0.14,0.4,0.12,0.55-0.04
		c0.15-0.16,0.66-0.71,0.84-0.96c0.18-0.25,0.34-0.2,0.57-0.11c0.23,0.09,1.45,0.75,1.69,0.89c0.25,0.14,0.41,0.21,0.47,0.31
		C25.18,22.24,25.17,22.74,24.93,23.33z"/>
	<path class="st0" d="M19.83,0L19.83,0C8.88,0,0,8.88,0,19.84v0c0,10.95,8.87,19.82,19.82,19.82h0.02
		c10.95,0,19.82-8.87,19.82-19.82v0C39.66,8.88,30.78,0,19.83,0z M20.01,29.46c-1.73,0-3.36-0.45-4.78-1.23l-5.48,1.75l1.79-5.31
		c-0.9-1.49-1.42-3.24-1.42-5.11c0-5.46,4.43-9.89,9.89-9.89c5.46,0,9.89,4.43,9.89,9.89C29.9,25.03,25.48,29.46,20.01,29.46z"/>
</g>
</svg>
