<?xml version="1.0" encoding="utf-8"?>
<!-- Generator: Adobe Illustrator 24.0.0, SVG Export Plug-In . SVG Version: 6.00 Build 0)  -->
<svg version="1.1" id="Слой_1" xmlns="http://www.w3.org/2000/svg" xmlns:xlink="http://www.w3.org/1999/xlink" x="0px" y="0px"
	 viewBox="0 0 39.66 39.66" style="enable-background:new 0 0 39.66 39.66;" xml:space="preserve">
<style type="text/css">
	.st0{fill:#FFFFFF;}
</style>
<g>
	<path class="st0" d="M25.24,14.81l-10.73,6.73l1.82,5.59l0.46-4l8.91-8.01C25.94,14.85,25.77,14.45,25.24,14.81z"/>
	<path class="st0" d="M19.83,0L19.83,0C8.88,0,0,8.88,0,19.84v0c0,10.95,8.87,19.82,19.82,19.82h0.02
		c10.95,0,19.82-8.87,19.82-19.82v0C39.66,8.88,30.78,0,19.83,0z M29.44,13.04l-3.08,15.23c-0.22,1.08-0.88,1.34-1.78,0.84
		l-4.91-3.63c-1.15,1.12-1.88,1.83-2.36,2.28c-0.41,0.36-0.56,0.51-0.95,0.5c-0.37-0.01-0.55-0.23-0.77-0.84l-1.81-5.54l-4.72-1.47
		c-0.76-0.24-0.79-1.26,0.24-1.56l18.84-7.13C28.99,11.32,29.77,11.72,29.44,13.04z"/>
</g>
</svg>
