<?xml version="1.0" encoding="utf-8"?>
<!-- Generator: Adobe Illustrator 24.0.0, SVG Export Plug-In . SVG Version: 6.00 Build 0)  -->
<svg version="1.1" id="Слой_1" xmlns="http://www.w3.org/2000/svg" xmlns:xlink="http://www.w3.org/1999/xlink" x="0px" y="0px"
	 viewBox="0 0 39.66 39.66" style="enable-background:new 0 0 39.66 39.66;" xml:space="preserve">
<style type="text/css">
	.st0{fill:#FFFFFF;}
</style>
<g>
	<path class="st0" d="M27.76,13.83c-0.18-0.47-0.4-0.81-0.76-1.17c-0.36-0.36-0.69-0.58-1.17-0.76c-0.36-0.14-0.9-0.3-1.89-0.35
		c-1.07-0.05-1.39-0.06-4.11-0.06c-2.72,0-3.04,0.01-4.11,0.06c-0.99,0.05-1.53,0.21-1.89,0.35c-0.47,0.18-0.81,0.4-1.17,0.76
		c-0.36,0.36-0.58,0.69-0.76,1.17c-0.14,0.36-0.3,0.9-0.35,1.89c-0.05,1.07-0.06,1.39-0.06,4.11c0,2.72,0.01,3.04,0.06,4.11
		c0.05,0.99,0.21,1.53,0.35,1.89c0.18,0.47,0.4,0.81,0.76,1.17c0.36,0.36,0.69,0.58,1.17,0.76c0.36,0.14,0.9,0.3,1.89,0.35
		c1.07,0.05,1.39,0.06,4.11,0.06c2.72,0,3.04-0.01,4.11-0.06c0.99-0.05,1.53-0.21,1.89-0.35c0.47-0.18,0.81-0.4,1.17-0.76
		c0.36-0.36,0.58-0.69,0.76-1.17c0.14-0.36,0.3-0.9,0.35-1.89c0.05-1.07,0.06-1.39,0.06-4.11c0-2.72-0.01-3.04-0.06-4.11
		C28.06,14.73,27.9,14.19,27.76,13.83z M19.83,25.05c-2.88,0-5.22-2.34-5.22-5.22c0-2.88,2.34-5.22,5.22-5.22
		c2.88,0,5.22,2.34,5.22,5.22C25.05,22.72,22.72,25.05,19.83,25.05z M25.26,15.62c-0.67,0-1.22-0.55-1.22-1.22
		c0-0.67,0.55-1.22,1.22-1.22c0.67,0,1.22,0.55,1.22,1.22C26.48,15.08,25.93,15.62,25.26,15.62z"/>
	<circle class="st0" cx="19.83" cy="19.83" r="3.39"/>
	<path class="st0" d="M19.83,0L19.83,0C8.88,0,0,8.88,0,19.83v0.01c0,10.95,8.87,19.82,19.82,19.82h0.02
		c10.95,0,19.82-8.87,19.82-19.82v-0.01C39.66,8.88,30.78,0,19.83,0z M29.94,24.02c-0.05,1.08-0.22,1.82-0.47,2.47
		c-0.26,0.67-0.61,1.24-1.17,1.8c-0.57,0.57-1.13,0.91-1.8,1.17c-0.65,0.25-1.39,0.42-2.47,0.47C22.94,29.99,22.59,30,19.83,30
		s-3.11-0.01-4.19-0.06c-1.08-0.05-1.82-0.22-2.47-0.47c-0.67-0.26-1.24-0.61-1.8-1.17c-0.57-0.57-0.91-1.13-1.17-1.8
		c-0.25-0.65-0.42-1.39-0.47-2.47c-0.05-1.08-0.06-1.43-0.06-4.19c0-2.76,0.01-3.11,0.06-4.19c0.05-1.08,0.22-1.82,0.47-2.47
		c0.26-0.67,0.61-1.24,1.17-1.8c0.57-0.57,1.13-0.91,1.8-1.17c0.65-0.25,1.39-0.42,2.47-0.47c1.08-0.05,1.43-0.06,4.19-0.06
		s3.11,0.01,4.19,0.06c1.08,0.05,1.82,0.22,2.47,0.47c0.67,0.26,1.24,0.61,1.8,1.17c0.57,0.57,0.91,1.13,1.17,1.8
		c0.25,0.65,0.42,1.39,0.47,2.47c0.05,1.08,0.06,1.43,0.06,4.19C30,22.59,29.99,22.94,29.94,24.02z"/>
</g>
</svg>
