<?xml version="1.0" encoding="utf-8"?>
<!-- Generator: Adobe Illustrator 24.0.0, SVG Export Plug-In . SVG Version: 6.00 Build 0)  -->
<svg version="1.1" id="Слой_1" xmlns="http://www.w3.org/2000/svg" xmlns:xlink="http://www.w3.org/1999/xlink" x="0px" y="0px"
	 viewBox="0 0 39.66 39.66" style="enable-background:new 0 0 39.66 39.66;" xml:space="preserve">
<style type="text/css">
	.st0{fill:#FFFFFF;}
</style>
<path class="st0" d="M19.83,0L19.83,0C8.88,0,0,8.88,0,19.83v0.01c0,10.95,8.87,19.82,19.82,19.82h0.02
	c10.95,0,19.82-8.87,19.82-19.82v-0.01C39.66,8.88,30.78,0,19.83,0z M29.19,15.6c0.01,0.19,0.01,0.38,0.01,0.58
	c0,5.91-4.5,12.73-12.73,12.73c-2.53,0-4.88-0.74-6.86-2.01c0.35,0.04,0.71,0.06,1.07,0.06c2.1,0,4.03-0.72,5.56-1.92
	c-1.96-0.04-3.61-1.33-4.18-3.11c0.27,0.05,0.55,0.08,0.84,0.08c0.41,0,0.8-0.05,1.18-0.16c-2.05-0.41-3.59-2.22-3.59-4.39
	c0-0.02,0-0.04,0-0.06c0.6,0.34,1.29,0.54,2.03,0.56c-1.2-0.8-1.99-2.17-1.99-3.72c0-0.82,0.22-1.59,0.61-2.25
	c2.21,2.71,5.5,4.49,9.22,4.67c-0.08-0.33-0.12-0.67-0.12-1.02c0-2.47,2-4.47,4.47-4.47c1.29,0,2.45,0.54,3.27,1.41
	c1.02-0.2,1.98-0.57,2.84-1.09c-0.33,1.05-1.04,1.92-1.97,2.48c0.91-0.11,1.77-0.35,2.57-0.7C30.82,14.18,30.06,14.97,29.19,15.6z"
	/>
</svg>
