<?xml version="1.0" encoding="utf-8"?>
<!-- Generator: Adobe Illustrator 24.0.0, SVG Export Plug-In . SVG Version: 6.00 Build 0)  -->
<svg version="1.1" id="Слой_1" xmlns="http://www.w3.org/2000/svg" xmlns:xlink="http://www.w3.org/1999/xlink" x="0px" y="0px"
	 viewBox="0 0 39.66 39.66" style="enable-background:new 0 0 39.66 39.66;" xml:space="preserve">
<style type="text/css">
	.st0{fill:#FFFFFF;}
</style>
<path class="st0" d="M19.83,0L19.83,0C8.88,0,0,8.88,0,19.83v0.01c0,10.95,8.87,19.82,19.82,19.82h0.02
	c10.95,0,19.82-8.87,19.82-19.82v-0.01C39.66,8.88,30.78,0,19.83,0z M26.09,12.32l-2.27,0c-1.78,0-2.12,0.85-2.12,2.09v2.73h4.24
	l-0.55,4.28H21.7v10.99h-4.42V21.43h-3.7v-4.28h3.7v-3.16c0-3.67,2.24-5.66,5.51-5.66c1.57,0,2.91,0.12,3.31,0.17V12.32z"/>
</svg>
