<?xml version="1.0" encoding="utf-8"?>
<!-- Generator: Adobe Illustrator 24.0.0, SVG Export Plug-In . SVG Version: 6.00 Build 0)  -->
<svg version="1.1" id="Слой_1" xmlns="http://www.w3.org/2000/svg" xmlns:xlink="http://www.w3.org/1999/xlink" x="0px" y="0px"
	 viewBox="0 0 39.66 39.66" style="enable-background:new 0 0 39.66 39.66;" xml:space="preserve">
<style type="text/css">
	.st0{fill:#FFFFFF;}
</style>
<path class="st0" d="M19.83,0L19.83,0C8.88,0,0,8.88,0,19.83v0.01c0,10.95,8.87,19.82,19.82,19.82h0.02
	c10.95,0,19.82-8.87,19.82-19.82v-0.01C39.66,8.88,30.78,0,19.83,0z M30.79,27.64l-3.36,0.05c0,0-0.72,0.14-1.67-0.51
	c-1.26-0.86-2.44-3.1-3.36-2.81c-0.94,0.3-0.91,2.31-0.91,2.31s0.01,0.43-0.21,0.66c-0.23,0.25-0.69,0.3-0.69,0.3h-1.5
	c0,0-3.32,0.2-6.24-2.84c-3.19-3.32-6-9.9-6-9.9s-0.16-0.43,0.01-0.64c0.2-0.23,0.74-0.25,0.74-0.25l3.59-0.02
	c0,0,0.34,0.06,0.58,0.23c0.2,0.15,0.31,0.42,0.31,0.42s0.58,1.47,1.35,2.8c1.5,2.59,2.2,3.16,2.71,2.88
	c0.74-0.41,0.52-3.67,0.52-3.67s0.01-1.18-0.37-1.71c-0.3-0.41-0.87-0.53-1.12-0.56c-0.2-0.03,0.13-0.5,0.56-0.71
	c0.65-0.32,1.79-0.33,3.14-0.32c1.05,0.01,1.35,0.08,1.77,0.18c1.24,0.3,0.82,1.45,0.82,4.23c0,0.89-0.16,2.14,0.48,2.55
	c0.28,0.18,0.95,0.03,2.63-2.83c0.8-1.36,1.4-2.95,1.4-2.95s0.13-0.28,0.33-0.41c0.21-0.12,0.49-0.09,0.49-0.09l3.78-0.02
	c0,0,1.14-0.14,1.32,0.38c0.19,0.54-0.42,1.8-1.97,3.85c-2.54,3.38-2.82,3.07-0.71,5.02c2.01,1.87,2.43,2.78,2.5,2.89
	C32.55,27.53,30.79,27.64,30.79,27.64z"/>
</svg>
