<?xml version="1.0" encoding="utf-8"?>
<!-- Generator: Adobe Illustrator 24.0.0, SVG Export Plug-In . SVG Version: 6.00 Build 0)  -->
<svg version="1.1" id="Слой_1" xmlns="http://www.w3.org/2000/svg" xmlns:xlink="http://www.w3.org/1999/xlink" x="0px" y="0px"
	 viewBox="0 0 31.98 21.76" style="enable-background:new 0 0 31.98 21.76;" xml:space="preserve">
<style type="text/css">
	.st0{fill:#FFFFFF;}
</style>
<g>
	<path class="st0" d="M26.35,4.23l-10.36,9.13L5.63,4.23C5.22,3.86,4.59,3.9,4.23,4.32C3.87,4.73,3.9,5.36,4.32,5.72l11.02,9.71
		c0.19,0.17,0.42,0.25,0.66,0.25s0.47-0.08,0.66-0.25l11.01-9.71c0.41-0.36,0.45-0.99,0.09-1.4C27.39,3.9,26.76,3.86,26.35,4.23
		L26.35,4.23z M26.35,4.23"/>
	<path class="st0" d="M29,0H2.99C1.34,0,0,1.34,0,2.99v15.79c0,1.65,1.34,2.99,2.99,2.99H29c1.65,0,2.99-1.34,2.99-2.99V2.99
		C31.98,1.34,30.64,0,29,0L29,0z M29.99,18.77c0,0.55-0.45,1-1,1H2.99c-0.55,0-1-0.45-1-1V2.99c0-0.55,0.45-1,1-1H29
		c0.55,0,1,0.45,1,1V18.77z M29.99,18.77"/>
</g>
</svg>
