<?xml version="1.0" encoding="utf-8"?>
<!-- Generator: Adobe Illustrator 24.0.0, SVG Export Plug-In . SVG Version: 6.00 Build 0)  -->
<svg version="1.1" id="Слой_1" xmlns="http://www.w3.org/2000/svg" xmlns:xlink="http://www.w3.org/1999/xlink" x="0px" y="0px"
	 viewBox="0 0 39.66 39.66" style="enable-background:new 0 0 39.66 39.66;" xml:space="preserve">
<style type="text/css">
	.st0{fill:#FFFFFF;}
</style>
<g>
	<path class="st0" d="M23.53,18.96c0.03,0.22-0.03,0.53,0.34,0.54c0.25,0.01,0.32-0.11,0.35-0.55c0.03-0.63-0.18-1.46-0.55-2.05
		c-0.78-1.26-1.92-1.79-3.38-1.93c-0.23-0.02-0.38,0.07-0.42,0.31c-0.04,0.25,0.11,0.37,0.33,0.4c0.45,0.06,0.88,0.18,1.3,0.33
		c0.95,0.33,1.55,0.98,1.82,1.94C23.41,18.28,23.48,18.61,23.53,18.96z"/>
	<path class="st0" d="M21.51,16.72c-0.19-0.09-0.51-0.19-0.72-0.18c-0.31,0.02-0.48,0.15-0.47,0.37c0.01,0.27,0.24,0.27,0.42,0.32
		c0.07,0.02,0.15,0.03,0.22,0.05c0.58,0.16,0.92,0.54,1.03,1.13c0.02,0.11,0.03,0.22,0.06,0.33c0.05,0.15,0.14,0.26,0.32,0.26
		c0.18,0,0.28-0.1,0.32-0.26c0.02-0.08,0.02-0.17,0.03-0.29C22.63,17.63,22.28,17.1,21.51,16.72z"/>
	<path class="st0" d="M19.75,14.1c0.44,0.04,0.87,0.13,1.29,0.23c1.61,0.41,2.86,1.27,3.51,2.86c0.34,0.82,0.51,1.68,0.57,2.56
		c0.02,0.23,0.13,0.35,0.35,0.35c0.22,0,0.31-0.15,0.32-0.35c0.01-0.18,0-0.36,0-0.53c-0.04-1.2-0.42-2.48-1.13-3.44
		c-1.21-1.63-2.78-2.25-4.87-2.35c-0.25-0.01-0.39,0.09-0.41,0.35C19.37,14.04,19.55,14.08,19.75,14.1z"/>
	<path class="st0" d="M19.83,0L19.83,0C8.88,0,0,8.88,0,19.84l0,0c0,10.95,8.87,19.82,19.82,19.82h0.02
		c10.95,0,19.82-8.87,19.82-19.82l0,0C39.66,8.88,30.78,0,19.83,0z M29.52,23.49c-0.11,0.47-0.29,0.93-0.47,1.38
		c-0.68,1.7-2.03,2.6-3.71,3.11c-1.32,0.4-2.69,0.57-4.06,0.68c-0.72,0.06-1.86,0.03-2.58,0.02c-0.62-0.01-0.45-0.03-0.85,0.38
		c-0.78,0.81-1.49,1.51-2.24,2.36c-0.25,0.28-0.6,0.64-1.1,1.12c0-1.41,0-2.76,0-4.11c0-0.21-0.06-0.33-0.25-0.41
		c-0.21-0.09-0.4-0.2-0.61-0.28c-1.91-0.76-3.02-2.2-3.53-4.15c-0.44-1.68-0.5-3.4-0.41-5.13c0.06-1.17,0.21-2.33,0.52-3.46
		c0.43-1.59,1.41-2.74,2.83-3.54c1.21-0.68,2.52-1.04,3.88-1.22c2.68-0.36,5.34-0.19,7.96,0.49c1.04,0.27,2.01,0.7,2.84,1.41
		c1,0.85,1.54,1.97,1.79,3.23C30.09,18.07,30.18,20.79,29.52,23.49z"/>
	<path class="st0" d="M25.49,23.34c-0.63-0.54-1.3-1.04-2.01-1.48c-0.83-0.51-1.44-0.38-2.01,0.41c-0.03,0.04-0.05,0.08-0.08,0.11
		c-0.26,0.32-0.59,0.45-1,0.33c-0.45-0.13-0.84-0.36-1.23-0.61c-1.02-0.65-1.78-1.53-2.25-2.66c-0.28-0.69-0.15-1.13,0.44-1.56
		c0.08-0.06,0.15-0.11,0.22-0.17c0.45-0.38,0.55-0.74,0.3-1.27c-0.46-0.97-1.09-1.81-1.87-2.54c-0.22-0.21-0.49-0.31-0.79-0.29
		c-1.11,0.06-2.12,1.13-2.12,2.28c-0.01,0.31,0.06,0.65,0.19,0.97c1.81,4.48,5,7.59,9.42,9.47c0.32,0.14,0.66,0.22,1.01,0.12
		c0.97-0.27,1.66-0.88,2.07-1.8C26.03,24.13,25.92,23.7,25.49,23.34z"/>
</g>
</svg>
