<?xml version="1.0" encoding="utf-8"?>
<!-- Generator: Adobe Illustrator 24.0.0, SVG Export Plug-In . SVG Version: 6.00 Build 0)  -->
<svg version="1.1" id="Слой_1" xmlns="http://www.w3.org/2000/svg" xmlns:xlink="http://www.w3.org/1999/xlink" x="0px" y="0px"
	 viewBox="0 0 21.76 31.98" style="enable-background:new 0 0 21.76 31.98;" xml:space="preserve">
<style type="text/css">
	.st0{fill:#FFFFFF;}
</style>
<g>
	<path class="st0" d="M21.76,29V2.99c0-1.65-1.34-2.99-2.99-2.99H2.99C1.34,0,0,1.34,0,2.99V29c0,1.65,1.34,2.99,2.99,2.99h15.79
		C20.42,31.98,21.76,30.64,21.76,29L21.76,29z M2.99,29.99c-0.55,0-1-0.45-1-1V2.99c0-0.55,0.45-1,1-1h15.79c0.55,0,1,0.45,1,1V29
		c0,0.55-0.45,1-1,1H2.99z M2.99,29.99"/>
	<circle class="st0" cx="10.88" cy="27.03" r="1.58"/>
</g>
</svg>
