<?xml version="1.0" encoding="utf-8"?>
<!-- Generator: Adobe Illustrator 24.0.0, SVG Export Plug-In . SVG Version: 6.00 Build 0)  -->
<svg version="1.1" id="Слой_1" xmlns="http://www.w3.org/2000/svg" xmlns:xlink="http://www.w3.org/1999/xlink" x="0px" y="0px"
	 viewBox="0 0 100 100" style="enable-background:new 0 0 100 100;" xml:space="preserve">
<style type="text/css">
	.st0{fill:#FFFFFF;}
</style>
<g>
	<path class="st0" d="M67.46,57.67c-1.5-1.35-3.43-2.1-5.44-2.1c-2.29,0-4.48,0.97-6.02,2.67l-1.54,1.7
		c-0.6,0.66-1.08,1.41-1.43,2.23c-6.13-2.58-11.16-7.18-14.27-13.06c1.13-0.46,2.14-1.17,2.96-2.08l1.54-1.7
		c1.45-1.61,2.19-3.69,2.08-5.85c-0.11-2.16-1.05-4.16-2.66-5.61l-2.59-2.34c-1.49-1.35-3.43-2.1-5.44-2.1
		c-2.29,0-4.48,0.97-6.02,2.67l-1.54,1.7c-0.21,0.24-0.42,0.49-0.6,0.75c-1.7,1.5-3.04,4.82-2.25,8.89
		c3.39,17.66,18.27,31.12,36.18,32.72c0.39,0.04,0.77,0.05,1.15,0.05c2.06,0,4-0.51,5.55-1.46c0.75-0.43,1.41-0.97,1.98-1.6
		l1.54-1.7c3-3.32,2.74-8.46-0.57-11.46L67.46,57.67z M69.08,70.08l-1.54,1.7c-0.42,0.47-0.92,0.86-1.5,1.2
		c-1.47,0.91-3.41,1.3-5.44,1.12c-16.99-1.52-31.1-14.29-34.32-31.04c-0.68-3.51,0.6-6.09,1.62-6.97c0.03-0.03,0.07-0.06,0.09-0.09
		l0.07-0.08c0.03-0.03,0.06-0.07,0.08-0.11c0.15-0.21,0.31-0.42,0.48-0.61l1.54-1.7c1.14-1.26,2.77-1.98,4.47-1.98
		c1.49,0,2.93,0.55,4.04,1.56l2.59,2.34c1.19,1.08,1.9,2.56,1.98,4.17c0.08,1.61-0.47,3.15-1.55,4.35l-1.54,1.7l0,0
		c-0.74,0.82-1.68,1.41-2.73,1.73l-0.47,0.14c-0.29,0.09-0.53,0.3-0.66,0.58c-0.12,0.28-0.11,0.6,0.02,0.88l0.22,0.44
		c3.4,6.84,9.19,12.15,16.29,14.95l0.4,0.16c0.27,0.1,0.56,0.09,0.82-0.03c0.26-0.12,0.46-0.34,0.55-0.61l0.14-0.41
		c0.27-0.79,0.68-1.5,1.24-2.12l1.54-1.7c1.14-1.26,2.77-1.99,4.47-1.99c1.49,0,2.93,0.55,4.04,1.56l2.6,2.35
		C71.12,63.79,71.31,67.61,69.08,70.08z"/>
	<path class="st0" d="M51.23,23.77c-1.2,0-2.17,0.97-2.17,2.17c0,1.2,0.97,2.17,2.17,2.17c11.26,0,20.43,9.16,20.43,20.43
		c0,1.2,0.97,2.17,2.17,2.17c1.2,0,2.17-0.97,2.17-2.17C75.99,34.88,64.88,23.77,51.23,23.77z M73.82,49.66
		c-0.62,0-1.13-0.51-1.13-1.13c0-11.84-9.63-21.47-21.47-21.47c-0.62,0-1.13-0.51-1.13-1.13c0-0.62,0.51-1.13,1.13-1.13
		c13.08,0,23.72,10.64,23.72,23.72C74.95,49.16,74.45,49.66,73.82,49.66z"/>
	<path class="st0" d="M63.59,48.8c0,1.2,0.97,2.17,2.17,2.17s2.17-0.97,2.17-2.17c0-9.36-7.61-16.97-16.97-16.97
		c-1.2,0-2.17,0.97-2.17,2.17c0,1.2,0.97,2.17,2.17,2.17C57.93,36.17,63.59,41.84,63.59,48.8z M49.84,34c0-0.62,0.5-1.13,1.13-1.13
		c8.78,0,15.92,7.14,15.92,15.92c0,0.62-0.51,1.13-1.13,1.13c-0.62,0-1.13-0.5-1.13-1.13c0-7.54-6.13-13.67-13.67-13.67
		C50.34,35.13,49.84,34.63,49.84,34z"/>
	<path class="st0" d="M50,0C22.43,0,0,22.43,0,50s22.43,50,50,50s50-22.43,50-50S77.57,0,50,0z M50,97.96
		C23.56,97.96,2.04,76.44,2.04,50S23.56,2.04,50,2.04S97.96,23.56,97.96,50S76.44,97.96,50,97.96z"/>
</g>
</svg>
