<?xml version="1.0" encoding="utf-8"?>
<!-- Generator: Adobe Illustrator 24.0.0, SVG Export Plug-In . SVG Version: 6.00 Build 0)  -->
<svg version="1.1" id="Слой_1" xmlns="http://www.w3.org/2000/svg" xmlns:xlink="http://www.w3.org/1999/xlink" x="0px" y="0px"
	 viewBox="0 0 100 100" style="enable-background:new 0 0 100 100;" xml:space="preserve">
<style type="text/css">
	.st0{fill:#FFFFFF;}
</style>
<g>
	<path class="st0" d="M72.69,39.65L50.84,17.8c-0.44-0.44-1.23-0.44-1.67,0L27.31,39.65c-0.24,0.24-0.35,0.55-0.35,0.85
		c-0.62,0.76-0.99,1.74-0.99,2.79v23.8c0,2.46,2,4.45,4.45,4.45h0.6l0.11,0.11l0.11-0.11h37.5l0.11,0.11l0.11-0.11h0.6
		c2.45,0,4.45-2,4.45-4.45v-23.8c0-1.06-0.37-2.03-0.99-2.79C73.04,40.19,72.92,39.88,72.69,39.65z M50,20.31l20.18,20.18
		l-5.17,5.17v-6.53c0-0.39-0.32-0.71-0.71-0.71H36.1c-0.39,0-0.71,0.32-0.71,0.71v6.93l-5.57-5.57L50,20.31z M63.59,39.83v7.91
		L50,61.33L36.81,48.14v-8.31H63.59z M29.93,69.51c-1.13-0.23-1.98-1.23-1.98-2.42v-23.8c0-0.39,0.1-0.75,0.26-1.07l14.51,14.51
		L29.93,69.51z M33.23,69.57L44.39,58.4l4.77,4.77c0.22,0.22,0.52,0.35,0.84,0.35c0.31,0,0.62-0.12,0.84-0.35l4.77-4.77l11.16,11.17
		H33.23z M72.04,67.09c0,1.19-0.85,2.19-1.98,2.42L57.28,56.73l14.51-14.51c0.16,0.33,0.26,0.69,0.26,1.07V67.09z"/>
	<path class="st0" d="M50,0C22.43,0,0,22.43,0,50s22.43,50,50,50s50-22.43,50-50S77.57,0,50,0z M50,97.96
		C23.56,97.96,2.04,76.44,2.04,50S23.56,2.04,50,2.04S97.96,23.56,97.96,50S76.44,97.96,50,97.96z"/>
</g>
</svg>
