<?xml version="1.0" encoding="utf-8"?>
<!-- Generator: Adobe Illustrator 24.0.0, SVG Export Plug-In . SVG Version: 6.00 Build 0)  -->
<svg version="1.1" id="Слой_1" xmlns="http://www.w3.org/2000/svg" xmlns:xlink="http://www.w3.org/1999/xlink" x="0px" y="0px"
	 viewBox="0 0 100 100" style="enable-background:new 0 0 100 100;" xml:space="preserve">
<style type="text/css">
	.st0{fill:#FFFFFF;}
</style>
<g>
	<path class="st0" d="M51.2,21.9l-2.68-0.01c-0.01,0-0.02,0.01-0.03,0.02C33.55,22.7,21.87,35.02,21.87,50S33.55,77.31,48.5,78.1
		l2.7,0.01C66.31,77.47,78.13,65.15,78.13,50C78.13,34.86,66.31,22.54,51.2,21.9z M69.74,33.16c-2.01,1.52-4.19,2.79-6.48,3.79
		c-1.94-4.77-5-9.07-8.9-12.54C60.35,25.43,65.75,28.5,69.74,33.16z M51.09,24.54c4.53,3.49,8.03,8.04,10.14,13.22
		c-3.26,1.17-6.67,1.8-10.14,1.87V24.54z M51.09,41.81c3.72-0.07,7.38-0.75,10.89-2.01c1.07,3.23,1.61,6.6,1.63,10.02l-12.53,0.01
		V41.81z M51.09,52.01L63.54,52c-0.2,3.36-0.91,6.63-2.11,9.73c-3.33-1.11-6.81-1.71-10.35-1.78V52.01z M45.27,24.49
		c-3.74,3.35-6.71,7.49-8.65,12.05c-2.14-1.02-4.16-2.27-6.03-3.74C34.46,28.44,39.61,25.53,45.27,24.49z M29.22,34.48
		c2.05,1.62,4.28,2.99,6.62,4.09c-1.26,3.61-1.9,7.4-1.92,11.27l-9.87,0C24.08,44.26,25.86,38.95,29.22,34.48z M24.13,52.02l9.86,0
		c0.21,3.77,1.02,7.42,2.4,10.87c-2.25,1-4.38,2.23-6.35,3.68C26.58,62.41,24.54,57.4,24.13,52.02z M31.51,68.19
		c1.78-1.3,3.72-2.41,5.75-3.31c1.93,4.04,4.62,7.61,8.01,10.64C40.07,74.56,35.24,71.99,31.51,68.19z M48.91,75.7
		c-4.12-3.09-7.43-7.1-9.63-11.63c3.09-1.12,6.32-1.76,9.63-1.91V75.7z M48.91,59.98c-3.61,0.15-7.15,0.86-10.51,2.09
		c-1.28-3.19-2.04-6.57-2.25-10.06l12.75-0.01V59.98z M48.91,49.83l-12.82,0.01c0.02-3.57,0.61-7.07,1.75-10.41
		c3.53,1.39,7.25,2.18,11.07,2.35V49.83z M48.91,39.6c-3.54-0.16-7-0.9-10.29-2.2c2.18-5.15,5.72-9.66,10.29-13.09V39.6z
		 M51.09,75.47V62.13c3.25,0.07,6.44,0.61,9.5,1.61C58.44,68.29,55.17,72.33,51.09,75.47z M54.36,75.59
		c3.54-3.14,6.32-6.87,8.28-11.1c2.19,0.89,4.27,2.02,6.19,3.36C64.95,71.94,59.87,74.65,54.36,75.59z M70.27,66.21
		c-2.1-1.49-4.38-2.74-6.79-3.72c1.29-3.33,2.04-6.86,2.25-10.49L75.88,52C75.48,57.22,73.55,62.11,70.27,66.21z M75.96,49.82
		l-10.17,0.01c-0.02-3.7-0.62-7.34-1.78-10.82c2.51-1.08,4.88-2.47,7.07-4.13C74.24,39.26,75.92,44.41,75.96,49.82z"/>
	<path class="st0" d="M50,0C22.43,0,0,22.43,0,50s22.43,50,50,50s50-22.43,50-50S77.57,0,50,0z M50,97.96
		C23.56,97.96,2.04,76.44,2.04,50S23.56,2.04,50,2.04S97.96,23.56,97.96,50S76.44,97.96,50,97.96z"/>
</g>
</svg>
