<?xml version="1.0" encoding="utf-8"?>
<!-- Generator: Adobe Illustrator 24.0.0, SVG Export Plug-In . SVG Version: 6.00 Build 0)  -->
<svg version="1.1" id="Слой_1" xmlns="http://www.w3.org/2000/svg" xmlns:xlink="http://www.w3.org/1999/xlink" x="0px" y="0px"
	 viewBox="0 0 66 66" style="enable-background:new 0 0 66 66;" xml:space="preserve">
<style type="text/css">
	.st0{fill:#5CFF60;}
</style>
<g>
	<g>
		<path class="st0" d="M21.6,23.9c-0.1-0.1-0.4-0.2-0.5-0.1c-0.1,0-0.2,0.1-0.2,0.2c-0.2-0.6-0.9-1.1-1.6-1.1h-1.7
			c-0.1,0-0.2,0-0.2,0c0-0.1,0-0.1,0-0.2v-1.8c0-0.8-0.5-1.4-1.3-1.6c0.1,0,0.1-0.1,0.2-0.2c0.1-0.2,0-0.4-0.1-0.5L15,17.4
			c-0.1-0.1-0.2-0.1-0.4-0.1c-0.1,0-0.3,0.1-0.4,0.1l-1,1.1c-0.1,0.1-0.2,0.4-0.1,0.5c0,0.1,0.1,0.2,0.2,0.2
			c-0.7,0.2-1.3,0.8-1.3,1.6v1.7c0,0.1,0,0.2,0,0.2c-0.1,0-0.1,0-0.2,0h-1.8c-0.7,0-1.3,0.4-1.5,1c0,0-0.1-0.1-0.1-0.1
			c-0.2-0.1-0.4,0-0.5,0.1l-1.1,1.1c-0.1,0.1-0.1,0.2-0.1,0.4s0.1,0.3,0.1,0.4l1.1,1c0.1,0.1,0.2,0.1,0.3,0.1c0.1,0,0.1,0,0.2,0l0,0
			c0.2,0.7,0.8,1.3,1.6,1.3h1.7c0.1,0,0.2,0,0.2,0c0,0.1,0,0.1,0,0.2V30c0,0.8,0.5,1.4,1.2,1.6c0,0-0.1,0.1-0.1,0.1
			c-0.1,0.2,0,0.4,0.1,0.5l1.1,1.1c0.1,0.1,0.2,0.1,0.3,0.1c0,0,0,0,0,0c0.1,0,0.3-0.1,0.4-0.1l1-1.1c0.1-0.1,0.2-0.4,0.1-0.5
			c0,0-0.1-0.1-0.1-0.1c0.7-0.2,1.2-0.9,1.2-1.6v-1.7c0-0.1,0-0.2,0-0.2c0.1,0,0.1,0,0.2,0h1.8c0.8,0,1.5-0.6,1.7-1.4
			c0,0,0.1,0.1,0.1,0.1c0.1,0,0.1,0,0.2,0c0.1,0,0.2,0,0.3-0.1l1.1-1c0.1-0.1,0.1-0.2,0.1-0.4s0-0.3-0.1-0.4L21.6,23.9z M14.4,25.1
			c0.1,0,0.2,0,0.3,0s0.2,0,0.3,0c0,0.2,0,0.4,0,0.6c-0.2,0-0.4,0-0.6,0C14.4,25.5,14.4,25.3,14.4,25.1z M13.1,20.9
			c0-0.4,0.3-0.7,0.7-0.7h1.8c0.4,0,0.7,0.3,0.7,0.7v1.8c0,0.1-0.1,0.3-0.2,0.3l-1.3,1.1c-0.1,0-0.1,0-0.2,0L13.2,23
			c-0.1-0.1-0.1-0.2-0.1-0.3V20.9z M10.1,27c-0.4,0-0.7-0.3-0.7-0.7v-1.8c0-0.4,0.3-0.7,0.7-0.7h1.8c0.1,0,0.3,0.1,0.3,0.2l1.1,1.3
			c0,0.1,0,0.1,0,0.2l-1.2,1.3C12.1,27,12,27,11.8,27L10.1,27L10.1,27z M16.2,30c0,0.4-0.3,0.7-0.7,0.7h-1.8c-0.4,0-0.7-0.3-0.7-0.7
			v-1.8c0-0.1,0.1-0.3,0.2-0.3l1.3-1.1c0,0,0.1,0,0.1,0c0,0,0.1,0,0.1,0l1.3,1.2c0.1,0.1,0.1,0.2,0.1,0.3L16.2,30L16.2,30z
			 M19.9,26.3c0,0.4-0.3,0.7-0.7,0.7h-1.8c-0.1,0-0.3-0.1-0.3-0.2l-1.1-1.3c0-0.1,0-0.1,0-0.2l1.2-1.3c0.1-0.1,0.2-0.1,0.3-0.1h1.7
			c0.4,0,0.7,0.3,0.7,0.7L19.9,26.3L19.9,26.3z"/>
		<path class="st0" d="M54,24.6c0,1.6,1.3,2.9,2.9,2.9c1.6,0,2.9-1.3,2.9-2.9s-1.3-2.9-2.9-2.9C55.3,21.7,54,23,54,24.6z M56.9,23.6
			c0.5,0,1,0.4,1,1s-0.4,1-1,1c-0.5,0-1-0.4-1-1S56.4,23.6,56.9,23.6z"/>
		<path class="st0" d="M47.3,21.7c-1.6,0-2.9,1.3-2.9,2.9s1.3,2.9,2.9,2.9c1.6,0,2.9-1.3,2.9-2.9S48.8,21.7,47.3,21.7z M48,22.9
			h-1.5c0.2-0.1,0.5-0.2,0.7-0.2C47.5,22.7,47.8,22.8,48,22.9z M47.9,23.9v1.2h-1.2v-1.2H47.9z M45.6,23.7v1.8
			c-0.2-0.3-0.2-0.6-0.2-0.9C45.4,24.2,45.5,23.9,45.6,23.7z M46.2,26.1h2.1c-0.3,0.2-0.7,0.3-1,0.3C46.9,26.5,46.5,26.3,46.2,26.1z
			 M48.9,25.5v-1.7c0.1,0.3,0.2,0.6,0.2,0.9C49.1,24.9,49,25.2,48.9,25.5z"/>
		<path class="st0" d="M52.2,22.6c1.6,0,2.9-1.3,2.9-2.9s-1.3-2.9-2.9-2.9c-1.6,0-2.9,1.3-2.9,2.9S50.6,22.6,52.2,22.6z M52.2,21.6
			c-0.5,0-1-0.2-1.3-0.6l2.6,0C53.2,21.4,52.7,21.6,52.2,21.6z M52.7,20.1h-1.1l0.6-1L52.7,20.1z M54,19.8c0,0.2,0,0.3-0.1,0.5
			L52.7,18C53.5,18.2,54,18.9,54,19.8z M51.7,18l-1.3,2.2c0-0.1-0.1-0.3-0.1-0.4C50.3,18.9,50.9,18.2,51.7,18z"/>
		<path class="st0" d="M52.2,32.3c1.6,0,2.9-1.3,2.9-2.9s-1.3-2.9-2.9-2.9c-1.6,0-2.9,1.3-2.9,2.9S50.6,32.3,52.2,32.3z M51.2,31
			C51.3,31,51.3,31,51.2,31l0.9-0.9l0.8,0.8c0,0,0.1,0.1,0.1,0.1c-0.3,0.1-0.6,0.2-0.9,0.2C51.8,31.3,51.5,31.2,51.2,31z M53.7,30.4
			c0-0.1-0.1-0.1-0.1-0.2l-0.8-0.8l0.8-0.8c0.1-0.1,0.1-0.2,0.1-0.3c0.2,0.3,0.3,0.6,0.3,1C54,29.8,53.9,30.1,53.7,30.4z M53.2,27.8
			c-0.1,0-0.2,0.1-0.3,0.1l-0.8,0.8L51.3,28c0,0-0.1-0.1-0.2-0.1c0.3-0.2,0.6-0.3,1-0.3C52.5,27.5,52.9,27.7,53.2,27.8z M50.5,28.5
			c0,0,0,0.1,0.1,0.1l0.8,0.8l-0.8,0.8c0,0,0,0.1-0.1,0.1c-0.2-0.3-0.3-0.6-0.3-0.9C50.3,29.1,50.4,28.8,50.5,28.5z"/>
		<path class="st0" d="M62.9,25.1c-0.2-0.7-0.3-1.3-0.5-1.8c-1.4-5.5-4.5-9.4-4.6-9.5c-0.1-0.1-0.1-0.1-0.2-0.2
			c-6.8-2.2-9.4-0.3-10.1,0.3h-4.4c-0.1-0.1-0.2-0.2-0.4-0.2H23.3c-0.2,0-0.3,0.1-0.4,0.2h-4.4c-0.7-0.6-3.3-2.5-10.1-0.3
			c-0.1,0-0.2,0.1-0.2,0.2c-0.1,0.2-3.2,4-4.6,9.5c-0.1,0.5-0.3,1.1-0.5,1.8c-1.8,6.9-5.4,20.5-1,25.9c0,0,0,0,0,0.1
			c0.2,0.2,0.3,0.4,0.5,0.6c0,0,0.1,0.1,0.1,0.1c0.2,0.2,0.4,0.4,0.7,0.5c0.3,0.2,0.6,0.3,0.9,0.5c0.1,0,0.2,0.1,0.3,0.1
			c0.2,0.1,0.4,0.2,0.6,0.2c0.1,0,0.2,0.1,0.2,0.1c0.3,0.1,0.6,0.2,0.8,0.2c0,0,0.1,0,0.1,0c0.2,0,0.5,0,0.7,0.1c0,0,0.1,0,0.1,0
			c0,0,0.1,0,0.1,0c0.2,0,0.4,0,0.6,0c0.1,0,0.2,0,0.2,0c0.3,0,0.5-0.1,0.8-0.2c0.2-0.1,0.5-0.2,0.7-0.3c0.3-0.1,0.6-0.3,0.8-0.5
			c2.7-1.7,4.2-5.2,4.2-5.3c0.1-0.2,2.1-5.2,2.9-7.7l1-0.7l1.7,0c1,0.9,2.3,1.4,3.7,1.4c1.3,0,2.6-0.5,3.6-1.3l5.3,0.1l4.9-0.1
			c1,0.8,2.3,1.3,3.6,1.3c1.4,0,2.7-0.5,3.7-1.4l2.1,0l1,0.7c0.7,2.5,2.8,7.4,2.9,7.7c0.1,0.2,2,4.9,5.7,6.1
			c0.6,0.2,1.2,0.3,1.7,0.3c1.2,0,2.5-0.4,3.8-1.2c0.2-0.2,0.5-0.3,0.7-0.5c0,0,0.1-0.1,0.1-0.1c0.2-0.2,0.4-0.4,0.5-0.6
			c0,0,0,0,0-0.1C68.3,45.5,64.7,31.9,62.9,25.1z M23.8,14.9h18.5v3c0,3.3-2.7,6-6,6h-6.5c-3.3,0-6-2.7-6-6V14.9z M12.9,48.6
			c-0.1,0.2-0.2,0.3-0.3,0.5c0,0,0,0.1-0.1,0.1c-0.1,0.1-0.2,0.3-0.3,0.4c0,0.1-0.1,0.1-0.1,0.2c-0.1,0.1-0.2,0.2-0.3,0.3
			c-0.1,0.1-0.1,0.1-0.2,0.2c-0.1,0.1-0.2,0.2-0.3,0.3c-0.1,0.1-0.1,0.1-0.2,0.2c-0.1,0.1-0.2,0.2-0.3,0.3c-0.1,0.1-0.1,0.1-0.2,0.2
			c-0.1,0.1-0.2,0.2-0.3,0.2c-0.1,0-0.1,0.1-0.2,0.1c-0.1,0.1-0.3,0.2-0.4,0.2c-0.1,0-0.1,0.1-0.2,0.1c-0.2,0.1-0.4,0.2-0.6,0.3
			c-1.5,0.5-3.1,0.2-4.7-0.8c-0.2-0.1-0.4-0.2-0.5-0.4c0,0,0,0,0,0c-1.2-1-2-2.7-2.3-5c1.6,1.6,4.5,2.7,7.2,3
			C10.2,49.2,11.7,49,12.9,48.6C12.9,48.6,12.9,48.6,12.9,48.6z M24,38.2c-1.8,0-3.3-1.5-3.3-3.3c0-1.8,1.5-3.3,3.3-3.3
			s3.3,1.5,3.3,3.3C27.3,36.7,25.9,38.2,24,38.2z M41.5,38.2c-1.8,0-3.3-1.5-3.3-3.3c0-1.8,1.5-3.3,3.3-3.3c1.8,0,3.3,1.5,3.3,3.3
			C44.9,36.7,43.4,38.2,41.5,38.2z M49,38.7l-1.3-0.9c-0.1-0.1-0.2-0.1-0.3-0.1c0,0,0,0,0,0l-2.4,0c-0.1,0-0.2,0-0.3,0.1
			c-0.2,0.2-0.5,0.4-0.7,0.5c1.1-0.8,1.9-2.1,1.9-3.6c0-2.4-1.9-4.3-4.3-4.3s-4.3,1.9-4.3,4.3c0,1.6,0.8,2.9,2.1,3.7
			c-0.3-0.2-0.6-0.3-0.8-0.6c-0.1-0.1-0.2-0.1-0.3-0.1L33,37.9l-5.4-0.1c-0.1,0-0.2,0-0.3,0.1c-0.4,0.4-0.9,0.7-1.5,0.9
			c1.5-0.7,2.6-2.2,2.6-4c0-2.4-1.9-4.3-4.3-4.3s-4.3,1.9-4.3,4.3c0,1.2,0.5,2.2,1.2,3c-0.1-0.1-0.2-0.1-0.3-0.1l-2.1,0
			c-0.1,0-0.2,0-0.3,0.1L17,38.7c-0.1,0.1-0.2,0.2-0.2,0.3c-0.6,2.2-2.6,7-2.9,7.7c-0.7,1.1-2.8,1.6-5.4,1.3c-3.1-0.4-6.8-2-7.5-4
			c-0.2-6.2,1.9-14.3,3-18.6c0.2-0.7,0.3-1.3,0.5-1.8c1.2-4.8,3.8-8.4,4.3-9c7-2.2,9,0.2,9,0.2c0.1,0.1,0.2,0.2,0.4,0.2h4.5v3
			c0,3.9,3.1,7,7,7h6.5c3.9,0,7-3.1,7-7v-3h4.5c0.1,0,0.3-0.1,0.4-0.2c0,0,2-2.4,9-0.2c0.5,0.7,3.1,4.3,4.3,9
			c0.1,0.5,0.3,1.1,0.5,1.8c1.1,4.3,3.3,12.4,3.1,18.6c-0.7,2-4.3,3.6-7.5,4c-2.6,0.3-4.7-0.2-5.4-1.3c-0.2-0.6-2.2-5.4-2.9-7.7
			C49.2,38.9,49.1,38.8,49,38.7z M57.2,52.2c-0.2-0.1-0.4-0.2-0.6-0.3c-0.1,0-0.1-0.1-0.2-0.1c-0.1-0.1-0.3-0.1-0.4-0.2
			c-0.1,0-0.1-0.1-0.2-0.1c-0.1-0.1-0.2-0.2-0.4-0.3c-0.1,0-0.1-0.1-0.2-0.2c-0.1-0.1-0.2-0.2-0.3-0.3c-0.1-0.1-0.1-0.1-0.2-0.2
			c-0.1-0.1-0.2-0.2-0.3-0.3c0,0-0.1-0.1-0.1-0.2c-0.1-0.1-0.2-0.3-0.3-0.4c0,0-0.1-0.1-0.1-0.1c-0.3-0.3-0.5-0.7-0.7-1
			c1.2,0.4,2.7,0.5,4.5,0.3c2.6-0.3,5.6-1.4,7.2-3c-0.3,2.3-1.1,4-2.3,5c0,0,0,0,0,0c-0.2,0.1-0.3,0.3-0.5,0.4
			C60.3,52.4,58.7,52.7,57.2,52.2z"/>
	</g>
</g>
</svg>
