<?xml version="1.0" encoding="utf-8"?>
<!-- Generator: Adobe Illustrator 24.0.0, SVG Export Plug-In . SVG Version: 6.00 Build 0)  -->
<svg version="1.1" id="Слой_1" xmlns="http://www.w3.org/2000/svg" xmlns:xlink="http://www.w3.org/1999/xlink" x="0px" y="0px"
	 viewBox="0 0 66.03 40.91" style="enable-background:new 0 0 66.03 40.91;" xml:space="preserve">
<style type="text/css">
	.st0{fill:#5CFF60;}
</style>
<g>
	<g>
		<path class="st0" d="M21.58,11.31c-0.14-0.14-0.36-0.18-0.54-0.11c-0.1,0.04-0.17,0.11-0.23,0.19c-0.24-0.65-0.86-1.11-1.59-1.11
			h-1.75c-0.08,0-0.16,0.01-0.24,0.03c0.01-0.06,0.02-0.12,0.02-0.18V8.31c0-0.79-0.54-1.45-1.28-1.64
			c0.08-0.05,0.15-0.13,0.19-0.23c0.08-0.19,0.03-0.4-0.11-0.54l-1.06-1.06c-0.1-0.1-0.22-0.13-0.36-0.15
			c-0.13,0-0.26,0.06-0.36,0.15l-1.01,1.06c-0.14,0.14-0.18,0.36-0.1,0.54c0.04,0.09,0.1,0.16,0.18,0.22
			c-0.74,0.19-1.29,0.85-1.29,1.65v1.75c0,0.08,0.01,0.16,0.03,0.24c-0.06-0.01-0.12-0.02-0.18-0.02h-1.82
			c-0.69,0-1.28,0.42-1.55,1.01c-0.04-0.03-0.07-0.07-0.11-0.09c-0.19-0.08-0.4-0.03-0.54,0.11l-1.06,1.06
			c-0.1,0.1-0.15,0.22-0.15,0.36s0.06,0.26,0.15,0.36l1.06,1.01c0.09,0.09,0.22,0.14,0.35,0.14c0.07,0,0.13-0.01,0.2-0.04
			c0,0,0.01-0.01,0.01-0.01c0.19,0.74,0.85,1.29,1.65,1.29h1.75c0.08,0,0.16-0.01,0.24-0.03c-0.01,0.06-0.02,0.11-0.02,0.17v1.82
			c0,0.76,0.51,1.4,1.2,1.62c-0.03,0.04-0.07,0.06-0.09,0.1c-0.08,0.19-0.03,0.4,0.11,0.54l1.06,1.06c0.09,0.09,0.22,0.15,0.35,0.15
			c0,0,0,0,0.01,0c0.13,0,0.26-0.06,0.36-0.15l1.01-1.06c0.14-0.15,0.18-0.36,0.1-0.54c-0.02-0.04-0.06-0.07-0.09-0.11
			c0.68-0.22,1.18-0.86,1.18-1.61V15.7c0-0.08-0.01-0.16-0.03-0.24c0.06,0.01,0.12,0.02,0.17,0.02h1.82c0.84,0,1.53-0.61,1.68-1.4
			c0.04,0.04,0.08,0.09,0.14,0.12c0.06,0.03,0.13,0.04,0.2,0.04c0.13,0,0.25-0.05,0.35-0.14l1.06-1.01c0.1-0.09,0.15-0.22,0.15-0.36
			s-0.05-0.26-0.15-0.36L21.58,11.31z M14.37,12.59c0.09,0.02,0.18,0.05,0.28,0.05c0.1,0,0.2-0.03,0.29-0.05
			c-0.05,0.19-0.05,0.38,0,0.57c-0.19-0.05-0.38-0.05-0.57,0C14.41,12.98,14.42,12.78,14.37,12.59z M13.06,8.31
			c0-0.39,0.32-0.7,0.7-0.7h1.78c0.39,0,0.71,0.32,0.71,0.71v1.82c0,0.13-0.06,0.26-0.16,0.35l-1.34,1.13
			c-0.06,0.05-0.15,0.05-0.21,0l-1.33-1.21c-0.09-0.09-0.15-0.21-0.15-0.33V8.31z M10.08,14.48c-0.39,0-0.7-0.32-0.7-0.71v-1.78
			c0-0.39,0.32-0.71,0.71-0.71h1.82c0.13,0,0.26,0.06,0.35,0.16l1.13,1.34c0.05,0.06,0.05,0.15,0,0.21l-1.21,1.33
			c-0.09,0.09-0.21,0.15-0.33,0.15H10.08z M16.25,17.45c0,0.39-0.32,0.71-0.7,0.71h-1.78c-0.39,0-0.71-0.32-0.71-0.71v-1.82
			c0-0.13,0.06-0.26,0.16-0.35l1.34-1.13c0.03-0.03,0.06-0.04,0.1-0.04c0.04,0,0.08,0.01,0.1,0.04l1.33,1.21
			c0.09,0.09,0.15,0.21,0.15,0.34V17.45z M19.92,13.77c0,0.39-0.32,0.71-0.71,0.71H17.4c-0.13,0-0.26-0.06-0.35-0.16l-1.13-1.34
			c-0.05-0.06-0.05-0.15,0-0.21l1.21-1.33c0.09-0.09,0.21-0.15,0.33-0.15h1.75c0.39,0,0.7,0.32,0.7,0.7V13.77z"/>
		<path class="st0" d="M54.02,12.04c0,1.58,1.29,2.87,2.87,2.87s2.87-1.29,2.87-2.87s-1.29-2.87-2.87-2.87S54.02,10.46,54.02,12.04z
			 M56.93,11.08c0.53,0,0.96,0.43,0.96,0.96S57.46,13,56.93,13s-0.96-0.43-0.96-0.96S56.41,11.08,56.93,11.08z"/>
		<path class="st0" d="M47.28,9.17c-1.58,0-2.87,1.29-2.87,2.87s1.29,2.87,2.87,2.87s2.87-1.29,2.87-2.87S48.86,9.17,47.28,9.17z
			 M48.03,10.33h-1.5c0.23-0.1,0.48-0.16,0.75-0.16S47.8,10.23,48.03,10.33z M47.92,11.33v1.25h-1.25v-1.25H47.92z M45.67,11.12
			v1.84c-0.16-0.27-0.25-0.58-0.25-0.92C45.41,11.7,45.51,11.39,45.67,11.12z M46.24,13.59h2.09c-0.3,0.2-0.66,0.32-1.04,0.32
			S46.53,13.79,46.24,13.59z M48.92,12.92v-1.75c0.14,0.26,0.23,0.56,0.23,0.88C49.15,12.36,49.06,12.65,48.92,12.92z"/>
		<path class="st0" d="M52.2,10.08c1.58,0,2.87-1.29,2.87-2.87s-1.29-2.87-2.87-2.87s-2.87,1.29-2.87,2.87S50.62,10.08,52.2,10.08z
			 M52.2,9.08c-0.52,0-0.99-0.21-1.33-0.56l2.65,0.01C53.18,8.87,52.71,9.08,52.2,9.08z M52.75,7.53l-1.13,0l0.57-0.98L52.75,7.53z
			 M54.07,7.21c0,0.17-0.03,0.33-0.07,0.48l-1.3-2.27C53.48,5.64,54.07,6.35,54.07,7.21z M51.68,5.43l-1.29,2.22
			c-0.03-0.14-0.06-0.29-0.06-0.44C50.33,6.36,50.9,5.65,51.68,5.43z"/>
		<path class="st0" d="M52.2,19.73c1.58,0,2.87-1.29,2.87-2.87S53.78,14,52.2,14s-2.87,1.29-2.87,2.87S50.62,19.73,52.2,19.73z
			 M51.26,18.47c0.04-0.02,0.07-0.04,0.1-0.07l0.78-0.79l0.78,0.79c0.04,0.04,0.09,0.07,0.15,0.1c-0.26,0.14-0.56,0.23-0.88,0.23
			C51.86,18.73,51.54,18.63,51.26,18.47z M53.76,17.89c-0.02-0.07-0.06-0.13-0.11-0.19l-0.78-0.79l0.78-0.79
			c0.07-0.07,0.11-0.16,0.13-0.26c0.18,0.29,0.29,0.63,0.29,1C54.07,17.24,53.95,17.59,53.76,17.89z M53.19,15.29
			c-0.09,0.02-0.18,0.06-0.26,0.13l-0.78,0.79l-0.78-0.79c-0.05-0.05-0.12-0.09-0.19-0.11C51.47,15.11,51.82,15,52.2,15
			C52.57,15,52.91,15.11,53.19,15.29z M50.56,15.98c0.02,0.05,0.05,0.1,0.1,0.15l0.78,0.79l-0.78,0.79
			c-0.03,0.03-0.05,0.07-0.07,0.1c-0.16-0.28-0.26-0.59-0.26-0.94C50.33,16.54,50.42,16.24,50.56,15.98z"/>
		<path class="st0" d="M62.91,12.53c-0.18-0.69-0.34-1.3-0.47-1.79c-1.38-5.51-4.47-9.39-4.6-9.55c-0.06-0.08-0.14-0.13-0.24-0.16
			c-6.76-2.17-9.39-0.34-10.07,0.32h-4.38c-0.09-0.13-0.23-0.21-0.4-0.21H23.27c-0.17,0-0.31,0.09-0.4,0.21h-4.38
			C17.82,0.7,15.19-1.14,8.42,1.03C8.33,1.06,8.25,1.12,8.19,1.19c-0.13,0.16-3.23,4.04-4.6,9.55c-0.12,0.5-0.28,1.1-0.47,1.79
			C1.3,19.39-2.3,33.01,2.09,38.41c0.02,0.02,0.03,0.04,0.05,0.06c0.17,0.21,0.35,0.4,0.55,0.58c0.05,0.04,0.09,0.09,0.14,0.13
			c0.22,0.19,0.45,0.37,0.7,0.52c0.29,0.18,0.58,0.33,0.86,0.47c0.09,0.04,0.17,0.08,0.26,0.12c0.21,0.1,0.43,0.18,0.64,0.25
			c0.08,0.03,0.16,0.06,0.25,0.08c0.28,0.09,0.56,0.16,0.84,0.2c0.04,0.01,0.07,0.01,0.11,0.01c0.25,0.04,0.49,0.05,0.73,0.06
			c0.04,0,0.07,0.01,0.11,0.01c0.05,0,0.1-0.01,0.15-0.01c0.19-0.01,0.38-0.02,0.57-0.05c0.08-0.01,0.16-0.02,0.24-0.03
			c0.26-0.05,0.53-0.1,0.79-0.19c0.23-0.08,0.46-0.16,0.68-0.26c0.29-0.13,0.57-0.29,0.83-0.46c2.74-1.75,4.17-5.19,4.23-5.35
			c0.09-0.21,2.15-5.18,2.88-7.67l1-0.68l1.74,0.02c1.03,0.9,2.34,1.39,3.7,1.39c1.31,0,2.58-0.46,3.6-1.3l5.29,0.07l4.94-0.06
			c1.01,0.84,2.28,1.3,3.59,1.3c1.36,0,2.67-0.49,3.7-1.39l2.07-0.03l1,0.68c0.73,2.48,2.79,7.45,2.88,7.66
			c0.08,0.2,2.02,4.88,5.75,6.09c0.57,0.19,1.16,0.28,1.75,0.28c1.24,0,2.51-0.4,3.8-1.21c0.25-0.16,0.48-0.33,0.7-0.52
			c0.05-0.04,0.09-0.09,0.14-0.13c0.2-0.18,0.38-0.37,0.55-0.58c0.02-0.02,0.04-0.04,0.05-0.06C68.33,33.01,64.73,19.39,62.91,12.53
			z M23.77,2.35h18.48v2.99c0,3.31-2.69,6-6,6h-6.48c-3.31,0-6-2.69-6-6V2.35z M12.87,36.07c-0.1,0.16-0.21,0.32-0.33,0.49
			c-0.03,0.04-0.05,0.07-0.08,0.11c-0.09,0.13-0.19,0.26-0.29,0.39c-0.05,0.06-0.09,0.11-0.14,0.17c-0.09,0.11-0.18,0.22-0.28,0.33
			c-0.06,0.06-0.12,0.13-0.17,0.19c-0.09,0.1-0.19,0.2-0.29,0.3c-0.06,0.06-0.13,0.13-0.2,0.19c-0.1,0.09-0.21,0.19-0.31,0.28
			c-0.07,0.06-0.14,0.12-0.21,0.17c-0.11,0.09-0.23,0.17-0.35,0.25c-0.07,0.05-0.14,0.1-0.22,0.15c-0.13,0.08-0.27,0.16-0.4,0.23
			c-0.07,0.03-0.13,0.07-0.2,0.11c-0.21,0.1-0.42,0.19-0.64,0.26c-1.48,0.48-3.06,0.2-4.7-0.83c-0.19-0.12-0.37-0.25-0.54-0.4
			c-0.01,0-0.01-0.01-0.02-0.01c-1.19-1.02-1.96-2.71-2.3-5.04c1.64,1.59,4.55,2.67,7.19,2.99c1.79,0.22,3.32,0.1,4.48-0.33
			C12.88,36.06,12.88,36.07,12.87,36.07z M24.05,25.67c-1.83,0-3.31-1.49-3.31-3.31s1.49-3.31,3.31-3.31s3.31,1.49,3.31,3.31
			S25.87,25.67,24.05,25.67z M41.57,25.67c-1.83,0-3.31-1.49-3.31-3.31s1.49-3.31,3.31-3.31s3.31,1.49,3.31,3.31
			S43.4,25.67,41.57,25.67z M49.04,26.16l-1.27-0.87c-0.08-0.06-0.18-0.09-0.28-0.09c0,0,0,0-0.01,0l-2.41,0.03
			c-0.12,0-0.24,0.05-0.33,0.13c-0.23,0.21-0.48,0.39-0.74,0.55c1.14-0.78,1.89-2.09,1.89-3.57c0-2.38-1.94-4.31-4.31-4.31
			s-4.31,1.93-4.31,4.31c0,1.56,0.84,2.91,2.08,3.67c-0.3-0.16-0.59-0.34-0.85-0.57c-0.09-0.08-0.21-0.14-0.34-0.13l-5.14,0.06
			l-5.44-0.07c-0.11,0-0.25,0.04-0.34,0.13c-0.44,0.39-0.94,0.68-1.47,0.86c1.53-0.66,2.61-2.19,2.61-3.96
			c0-2.38-1.94-4.31-4.31-4.31s-4.31,1.93-4.31,4.31c0,1.17,0.47,2.23,1.23,3.01c-0.09-0.08-0.2-0.12-0.32-0.13l-2.09-0.03
			c-0.11,0.01-0.2,0.03-0.29,0.09l-1.27,0.87c-0.1,0.07-0.17,0.17-0.2,0.28c-0.63,2.21-2.6,7.03-2.87,7.66
			c-0.72,1.12-2.79,1.61-5.4,1.3c-3.15-0.38-6.8-1.99-7.5-4.01c-0.23-6.17,1.91-14.27,3.05-18.6c0.19-0.7,0.35-1.31,0.47-1.81
			c1.19-4.77,3.81-8.37,4.32-9.05c7.01-2.21,8.98,0.19,9,0.21c0.09,0.13,0.24,0.21,0.4,0.21h4.5v2.99c0,3.86,3.14,7,7,7h6.48
			c3.86,0,7-3.14,7-7V2.35h4.5c0.15,0,0.3-0.08,0.4-0.2c0.02-0.03,1.99-2.43,9-0.21c0.52,0.68,3.13,4.27,4.32,9.05
			c0.12,0.5,0.29,1.11,0.47,1.8c1.15,4.33,3.29,12.43,3.06,18.6c-0.7,2.02-4.35,3.62-7.5,4.01c-2.61,0.32-4.68-0.18-5.4-1.3
			c-0.25-0.61-2.24-5.45-2.87-7.66C49.21,26.32,49.13,26.23,49.04,26.16z M57.26,39.68c-0.22-0.07-0.43-0.16-0.64-0.26
			c-0.06-0.03-0.13-0.07-0.19-0.1c-0.14-0.07-0.28-0.15-0.41-0.23c-0.07-0.04-0.14-0.09-0.21-0.14c-0.12-0.08-0.24-0.17-0.36-0.26
			c-0.07-0.05-0.13-0.11-0.2-0.16c-0.11-0.09-0.22-0.19-0.33-0.29c-0.06-0.06-0.12-0.11-0.18-0.17c-0.11-0.11-0.21-0.22-0.32-0.33
			c-0.05-0.05-0.1-0.1-0.14-0.16c-0.11-0.13-0.22-0.26-0.33-0.39c-0.03-0.04-0.06-0.07-0.09-0.11c-0.27-0.35-0.51-0.7-0.73-1.02
			c1.16,0.43,2.68,0.55,4.48,0.33c2.64-0.32,5.56-1.4,7.19-2.99c-0.33,2.33-1.1,4.01-2.29,5.04c-0.01,0.01-0.02,0.02-0.02,0.02
			c-0.17,0.15-0.35,0.28-0.54,0.39C60.33,39.88,58.74,40.16,57.26,39.68z"/>
	</g>
</g>
</svg>
