<?xml version="1.0" encoding="utf-8"?>
<!-- Generator: Adobe Illustrator 24.0.0, SVG Export Plug-In . SVG Version: 6.00 Build 0)  -->
<svg version="1.1" id="Слой_1" xmlns="http://www.w3.org/2000/svg" xmlns:xlink="http://www.w3.org/1999/xlink" x="0px" y="0px"
	 viewBox="0 0 66 66" style="enable-background:new 0 0 66 66;" xml:space="preserve">
<style type="text/css">
	.st0{fill:#5CFF60;}
</style>
<g>
	<g>
		<path class="st0" d="M21.6,11.3c-0.1-0.1-0.4-0.2-0.5-0.1c-0.1,0-0.2,0.1-0.2,0.2c-0.2-0.6-0.9-1.1-1.6-1.1h-1.7
			c-0.1,0-0.2,0-0.2,0c0-0.1,0-0.1,0-0.2V8.3c0-0.8-0.5-1.4-1.3-1.6c0.1,0,0.1-0.1,0.2-0.2c0.1-0.2,0-0.4-0.1-0.5L15,4.8
			c-0.1-0.1-0.2-0.1-0.4-0.1c-0.1,0-0.3,0.1-0.4,0.1l-1,1.1C13.1,6,13,6.3,13.1,6.4c0,0.1,0.1,0.2,0.2,0.2C12.6,6.8,12,7.4,12,8.2
			v1.7c0,0.1,0,0.2,0,0.2c-0.1,0-0.1,0-0.2,0H10c-0.7,0-1.3,0.4-1.5,1L8.4,11c-0.2-0.1-0.4,0-0.5,0.1l-1.1,1.1
			c-0.1,0.1-0.1,0.2-0.1,0.4s0.1,0.3,0.1,0.4l1.1,1c0.1,0.1,0.2,0.1,0.3,0.1s0.1,0,0.2,0l0,0c0.2,0.7,0.8,1.3,1.6,1.3h1.7
			c0.1,0,0.2,0,0.2,0c0,0.1,0,0.1,0,0.2v1.8c0,0.8,0.5,1.4,1.2,1.6L13,19.1c-0.1,0.2,0,0.4,0.1,0.5l1.1,1.1c0.1,0.1,0.2,0.1,0.3,0.1
			l0,0c0.1,0,0.3-0.1,0.4-0.1l1-1.1c0.1-0.1,0.2-0.4,0.1-0.5L15.9,19c0.7-0.2,1.2-0.9,1.2-1.6v-1.7c0-0.1,0-0.2,0-0.2
			c0.1,0,0.1,0,0.2,0h1.8c0.8,0,1.5-0.6,1.7-1.4l0.1,0.1c0.1,0,0.1,0,0.2,0s0.2,0,0.3-0.1l1.1-1c0.1-0.1,0.1-0.2,0.1-0.4
			s0-0.3-0.1-0.4L21.6,11.3z M14.4,12.5c0.1,0,0.2,0,0.3,0s0.2,0,0.3,0c0,0.2,0,0.4,0,0.6c-0.2,0-0.4,0-0.6,0
			C14.4,12.9,14.4,12.7,14.4,12.5z M13.1,8.3c0-0.4,0.3-0.7,0.7-0.7h1.8c0.4,0,0.7,0.3,0.7,0.7v1.8c0,0.1-0.1,0.3-0.2,0.3l-1.3,1.1
			c-0.1,0-0.1,0-0.2,0l-1.4-1.1c-0.1-0.1-0.1-0.2-0.1-0.3C13.1,10.1,13.1,8.3,13.1,8.3z M10.1,14.4c-0.4,0-0.7-0.3-0.7-0.7v-1.8
			c0-0.4,0.3-0.7,0.7-0.7h1.8c0.1,0,0.3,0.1,0.3,0.2l1.1,1.3c0,0.1,0,0.1,0,0.2l-1.2,1.3c0,0.2-0.1,0.2-0.3,0.2H10.1L10.1,14.4z
			 M16.2,17.4c0,0.4-0.3,0.7-0.7,0.7h-1.8c-0.4,0-0.7-0.3-0.7-0.7v-1.8c0-0.1,0.1-0.3,0.2-0.3l1.3-1.1h0.1h0.1l1.3,1.2
			c0.1,0.1,0.1,0.2,0.1,0.3L16.2,17.4L16.2,17.4z M19.9,13.7c0,0.4-0.3,0.7-0.7,0.7h-1.8c-0.1,0-0.3-0.1-0.3-0.2L16,12.9
			c0-0.1,0-0.1,0-0.2l1.2-1.3c0.1-0.1,0.2-0.1,0.3-0.1h1.7c0.4,0,0.7,0.3,0.7,0.7L19.9,13.7L19.9,13.7z"/>
		<path class="st0" d="M54,12c0,1.6,1.3,2.9,2.9,2.9c1.6,0,2.9-1.3,2.9-2.9s-1.3-2.9-2.9-2.9S54,10.4,54,12z M56.9,11
			c0.5,0,1,0.4,1,1s-0.4,1-1,1c-0.5,0-1-0.4-1-1S56.4,11,56.9,11z"/>
		<path class="st0" d="M47.3,9.1c-1.6,0-2.9,1.3-2.9,2.9s1.3,2.9,2.9,2.9c1.6,0,2.9-1.3,2.9-2.9S48.8,9.1,47.3,9.1z M48,10.3h-1.5
			c0.2-0.1,0.5-0.2,0.7-0.2C47.5,10.1,47.8,10.2,48,10.3z M47.9,11.3v1.2h-1.2v-1.2H47.9z M45.6,11.1v1.8c-0.2-0.3-0.2-0.6-0.2-0.9
			C45.4,11.6,45.5,11.3,45.6,11.1z M46.2,13.5h2.1c-0.3,0.2-0.7,0.3-1,0.3C46.9,13.9,46.5,13.7,46.2,13.5z M48.9,12.9v-1.7
			c0.1,0.3,0.2,0.6,0.2,0.9C49.1,12.3,49,12.6,48.9,12.9z"/>
		<path class="st0" d="M52.2,10c1.6,0,2.9-1.3,2.9-2.9s-1.3-2.9-2.9-2.9c-1.6,0-2.9,1.3-2.9,2.9S50.6,10,52.2,10z M52.2,9
			c-0.5,0-1-0.2-1.3-0.6h2.6C53.2,8.8,52.7,9,52.2,9z M52.7,7.5h-1.1l0.6-1L52.7,7.5z M54,7.2c0,0.2,0,0.3-0.1,0.5l-1.2-2.3
			C53.5,5.6,54,6.3,54,7.2z M51.7,5.4l-1.3,2.2c0-0.1-0.1-0.3-0.1-0.4C50.3,6.3,50.9,5.6,51.7,5.4z"/>
		<path class="st0" d="M52.2,19.7c1.6,0,2.9-1.3,2.9-2.9s-1.3-2.9-2.9-2.9c-1.6,0-2.9,1.3-2.9,2.9S50.6,19.7,52.2,19.7z M51.2,18.4
			C51.3,18.4,51.3,18.4,51.2,18.4l0.9-0.9l0.8,0.8l0.1,0.1c-0.3,0.1-0.6,0.2-0.9,0.2C51.8,18.7,51.5,18.6,51.2,18.4z M53.7,17.8
			c0-0.1-0.1-0.1-0.1-0.2l-0.8-0.8l0.8-0.8c0.1-0.1,0.1-0.2,0.1-0.3c0.2,0.3,0.3,0.6,0.3,1C54,17.2,53.9,17.5,53.7,17.8z M53.2,15.2
			c-0.1,0-0.2,0.1-0.3,0.1l-0.8,0.8l-0.8-0.7c0,0-0.1-0.1-0.2-0.1c0.3-0.2,0.6-0.3,1-0.3C52.5,14.9,52.9,15.1,53.2,15.2z M50.5,15.9
			C50.5,15.9,50.5,16,50.5,15.9l0.9,0.9l-0.8,0.8c0,0,0,0.1-0.1,0.1c-0.2-0.3-0.3-0.6-0.3-0.9C50.3,16.5,50.4,16.2,50.5,15.9z"/>
		<path class="st0" d="M62.9,12.5c-0.2-0.7-0.3-1.3-0.5-1.8c-1.4-5.5-4.5-9.4-4.6-9.5S57.7,1.1,57.6,1c-6.8-2.2-9.4-0.3-10.1,0.3
			h-4.4c-0.1-0.1-0.2-0.2-0.4-0.2H23.3c-0.2,0-0.3,0.1-0.4,0.2h-4.4C17.8,0.7,15.2-1.2,8.4,1C8.3,1,8.2,1.1,8.2,1.2
			c-0.1,0.2-3.2,4-4.6,9.5c-0.1,0.5-0.3,1.1-0.5,1.8c-1.8,6.9-5.4,20.5-1,25.9c0,0,0,0,0,0.1c0.2,0.2,0.3,0.4,0.5,0.6l0.1,0.1
			c0.2,0.2,0.4,0.4,0.7,0.5C3.7,39.9,4,40,4.3,40.2c0.1,0,0.2,0.1,0.3,0.1c0.2,0.1,0.4,0.2,0.6,0.2c0.1,0,0.2,0.1,0.2,0.1
			c0.3,0.1,0.6,0.2,0.8,0.2h0.1c0.2,0,0.5,0,0.7,0.1h0.1h0.1c0.2,0,0.4,0,0.6,0c0.1,0,0.2,0,0.2,0c0.3,0,0.5-0.1,0.8-0.2
			c0.2-0.1,0.5-0.2,0.7-0.3c0.3-0.1,0.6-0.3,0.8-0.5c2.7-1.7,4.2-5.2,4.2-5.3c0.1-0.2,2.1-5.2,2.9-7.7l1-0.7h1.7
			c1,0.9,2.3,1.4,3.7,1.4c1.3,0,2.6-0.5,3.6-1.3l5.3,0.1l4.9-0.1c1,0.8,2.3,1.3,3.6,1.3c1.4,0,2.7-0.5,3.7-1.4H47l1,0.7
			c0.7,2.5,2.8,7.4,2.9,7.7c0.1,0.2,2,4.9,5.7,6.1c0.6,0.2,1.2,0.3,1.7,0.3c1.2,0,2.5-0.4,3.8-1.2c0.2-0.2,0.5-0.3,0.7-0.5l0.1-0.1
			c0.2-0.2,0.4-0.4,0.5-0.6c0,0,0,0,0-0.1C68.3,32.9,64.7,19.3,62.9,12.5z M23.8,2.3h18.5v3c0,3.3-2.7,6-6,6h-6.5c-3.3,0-6-2.7-6-6
			V2.3z M12.9,36c-0.1,0.2-0.2,0.3-0.3,0.5c0,0,0,0.1-0.1,0.1c-0.1,0.1-0.2,0.3-0.3,0.4c0,0.1-0.1,0.1-0.1,0.2
			c-0.1,0.1-0.2,0.2-0.3,0.3s-0.1,0.1-0.2,0.2c-0.1,0.1-0.2,0.2-0.3,0.3s-0.1,0.1-0.2,0.2c-0.1,0.1-0.2,0.2-0.3,0.3
			s-0.1,0.1-0.2,0.2c-0.1,0.1-0.2,0.2-0.3,0.2S10.2,39,10.1,39c-0.1,0.1-0.3,0.2-0.4,0.2c-0.1,0-0.1,0.1-0.2,0.1
			c-0.2,0.1-0.4,0.2-0.6,0.3c-1.5,0.5-3.1,0.2-4.7-0.8c-0.2-0.1-0.4-0.2-0.5-0.4l0,0c-1.2-1-2-2.7-2.3-5c1.6,1.6,4.5,2.7,7.2,3
			C10.2,36.6,11.7,36.4,12.9,36L12.9,36z M24,25.6c-1.8,0-3.3-1.5-3.3-3.3S22.2,19,24,19s3.3,1.5,3.3,3.3S25.9,25.6,24,25.6z
			 M41.5,25.6c-1.8,0-3.3-1.5-3.3-3.3s1.5-3.3,3.3-3.3s3.3,1.5,3.3,3.3C44.9,24.1,43.4,25.6,41.5,25.6z M49,26.1l-1.3-0.9
			c-0.1-0.1-0.2-0.1-0.3-0.1l0,0H45c-0.1,0-0.2,0-0.3,0.1c-0.2,0.2-0.5,0.4-0.7,0.5c1.1-0.8,1.9-2.1,1.9-3.6c0-2.4-1.9-4.3-4.3-4.3
			s-4.3,1.9-4.3,4.3c0,1.6,0.8,2.9,2.1,3.7c-0.3-0.2-0.6-0.3-0.8-0.6c-0.1-0.1-0.2-0.1-0.3-0.1L33,25.3l-5.4-0.1
			c-0.1,0-0.2,0-0.3,0.1c-0.4,0.4-0.9,0.7-1.5,0.9c1.5-0.7,2.6-2.2,2.6-4c0-2.4-1.9-4.3-4.3-4.3s-4.3,1.9-4.3,4.3
			c0,1.2,0.5,2.2,1.2,3c-0.1-0.1-0.2-0.1-0.3-0.1h-2.1c-0.1,0-0.2,0-0.3,0.1L17,26.1c-0.1,0.1-0.2,0.2-0.2,0.3
			c-0.6,2.2-2.6,7-2.9,7.7c-0.7,1.1-2.8,1.6-5.4,1.3c-3.1-0.4-6.8-2-7.5-4c-0.2-6.2,1.9-14.3,3-18.6c0.2-0.7,0.3-1.3,0.5-1.8
			c1.2-4.8,3.8-8.4,4.3-9c7-2.2,9,0.2,9,0.2c0.1,0.1,0.2,0.2,0.4,0.2h4.5v3c0,3.9,3.1,7,7,7h6.5c3.9,0,7-3.1,7-7v-3h4.5
			c0.1,0,0.3-0.1,0.4-0.2c0,0,2-2.4,9-0.2c0.5,0.7,3.1,4.3,4.3,9c0.1,0.5,0.3,1.1,0.5,1.8c1.1,4.3,3.3,12.4,3.1,18.6
			c-0.7,2-4.3,3.6-7.5,4c-2.6,0.3-4.7-0.2-5.4-1.3c-0.2-0.6-2.2-5.4-2.9-7.7C49.2,26.3,49.1,26.2,49,26.1z M57.2,39.6
			c-0.2-0.1-0.4-0.2-0.6-0.3c-0.1,0-0.1-0.1-0.2-0.1c-0.1-0.1-0.3-0.1-0.4-0.2c-0.1,0-0.1-0.1-0.2-0.1c-0.1-0.1-0.2-0.2-0.4-0.3
			c-0.1,0-0.1-0.1-0.2-0.2c-0.1-0.1-0.2-0.2-0.3-0.3s-0.1-0.1-0.2-0.2c-0.1-0.1-0.2-0.2-0.3-0.3c0,0-0.1-0.1-0.1-0.2
			c-0.1-0.1-0.2-0.3-0.3-0.4l-0.1-0.1c-0.3-0.3-0.5-0.7-0.7-1c1.2,0.4,2.7,0.5,4.5,0.3c2.6-0.3,5.6-1.4,7.2-3c-0.3,2.3-1.1,4-2.3,5
			l0,0c-0.2,0.1-0.3,0.3-0.5,0.4C60.3,39.8,58.7,40.1,57.2,39.6z"/>
	</g>
</g>
</svg>
