<?xml version="1.0" encoding="utf-8"?>
<!-- Generator: Adobe Illustrator 24.0.0, SVG Export Plug-In . SVG Version: 6.00 Build 0)  -->
<svg version="1.1" id="Слой_1" xmlns="http://www.w3.org/2000/svg" xmlns:xlink="http://www.w3.org/1999/xlink" x="0px" y="0px"
	 viewBox="0 0 66 66" style="enable-background:new 0 0 66 66;" xml:space="preserve">
<style type="text/css">
	.st0{fill:#5CFF60;}
</style>
<g>
	<g>
		<path class="st0" d="M49.8,6.1V14H35.5c0.3-0.4,0.5-0.9,0.5-1.7c0-1.2-0.7-1.9-1.2-2.4c-0.4-0.5-0.8-0.8-0.8-1.4
			c0-0.8,0.3-1.2,0.5-1.4c0.2-0.2,0.3-0.5,0.2-0.7c-0.1-0.3-0.3-0.4-0.6-0.4H31c-0.3,0-0.5,0.2-0.6,0.4c-0.1,0.3,0,0.5,0.2,0.7
			C30.7,7.3,31,7.7,31,8.4c0,0.6-0.4,0.9-0.8,1.4c-0.5,0.6-1.2,1.3-1.2,2.4c0,0.8,0.2,1.3,0.5,1.7H21c-0.4-0.4-1.6-1.7-1.6-3.8
			c0-1.8,1.4-3.4,1.4-3.4c0.1-0.2,0.2-0.4,0.1-0.5c-0.1-0.2-0.3-0.3-0.5-0.3h-7.4c-0.2,0-0.4,0.1-0.5,0.3c-0.1,0.2-0.1,0.4,0.1,0.5
			c0,0,1.4,1.6,1.4,3.4c0,2.2-1.3,3.5-1.6,3.8H0.5C0.2,14,0,14.2,0,14.5S0.2,15,0.5,15h2.3v10.6c0,0.3,0.2,0.5,0.5,0.5
			s0.5-0.2,0.5-0.5V15h37.7v10.1H22.5c-0.3,0-0.5,0.2-0.5,0.5v14.6c0,0.3,0.2,0.5,0.5,0.5h19.1V46H25.4H3.8V35.1
			c0-0.3-0.2-0.5-0.5-0.5s-0.5,0.2-0.5,0.5V46H0.5C0.2,46,0,46.2,0,46.5v13.4c0,0.3,0.2,0.5,0.5,0.5h24.9h24.9h15.2
			c0.3,0,0.5-0.2,0.5-0.5V46.5V6.1c0-0.3-0.2-0.5-0.5-0.5H50.3C50,5.6,49.8,5.8,49.8,6.1z M30.1,12.3c0-0.8,0.4-1.2,0.9-1.7
			C31.5,10,32,9.4,32,8.4c0-0.7-0.2-1.2-0.4-1.5h1.8c-0.2,0.4-0.4,0.9-0.4,1.5c0,1,0.6,1.6,1.1,2.1c0.5,0.5,0.9,1,0.9,1.7
			c0,1-0.4,1.7-2.5,1.7S30.1,13.3,30.1,12.3z M14.9,10.2c0-1.3-0.6-2.5-1-3.2h5.5c-0.5,0.8-1,1.9-1,3.2c0,1.8,0.7,3.1,1.3,3.8h-6.1
			C14.3,13.2,14.9,11.9,14.9,10.2z M23,26.1h21.5v13.6H23V26.1z M42.5,40.7h2.4c0.3,0,0.5-0.2,0.5-0.5V25.6c0-0.3-0.2-0.5-0.5-0.5
			h-2.4V15h7.3v31h-7.3V40.7z M1,47h23.9v12.4H1V47z M25.9,47h23.9v12.4H25.9V47z M65,59.4H50.8V47H65V59.4z M50.8,6.6H65V46H50.8
			V6.6z"/>
		<path class="st0" d="M7.5,26.4c-0.2-0.1-0.6,0-0.7,0.2l-2.9,5.7H0.5c-0.3,0-0.5,0.2-0.5,0.5s0.2,0.5,0.5,0.5h17.2
			c0.3,0,0.5-0.2,0.5-0.5s-0.2-0.5-0.5-0.5h-3.6v-5.5c0-0.3-0.2-0.5-0.5-0.5s-0.5,0.2-0.5,0.5v5.5h-1.6v-5.5c0-0.3-0.2-0.5-0.5-0.5
			s-0.5,0.2-0.5,0.5v5.5H9.6v-5.5c0-0.3-0.2-0.5-0.5-0.5s-0.5,0.2-0.5,0.5v5.5H5l2.7-5.3C7.9,26.8,7.8,26.5,7.5,26.4z"/>
		<path class="st0" d="M53.4,41.7c0.3,0,0.5-0.2,0.5-0.5V30.8c0-0.3-0.2-0.5-0.5-0.5s-0.5,0.2-0.5,0.5v10.4
			C52.9,41.5,53.2,41.7,53.4,41.7z"/>
		<path class="st0" d="M53.4,56.8c0.3,0,0.5-0.2,0.5-0.5v-6.3c0-0.3-0.2-0.5-0.5-0.5s-0.5,0.2-0.5,0.5v6.3
			C52.9,56.6,53.2,56.8,53.4,56.8z"/>
		<path class="st0" d="M28.6,49.6c-0.3,0-0.5,0.2-0.5,0.5v6.3c0,0.3,0.2,0.5,0.5,0.5s0.5-0.2,0.5-0.5v-6.3
			C29.1,49.8,28.9,49.6,28.6,49.6z"/>
		<path class="st0" d="M21.8,49.6c-0.3,0-0.5,0.2-0.5,0.5v6.3c0,0.3,0.2,0.5,0.5,0.5s0.5-0.2,0.5-0.5v-6.3
			C22.3,49.8,22.1,49.6,21.8,49.6z"/>
	</g>
</g>
</svg>
