<?xml version="1.0" encoding="utf-8"?>
<!-- Generator: Adobe Illustrator 24.0.0, SVG Export Plug-In . SVG Version: 6.00 Build 0)  -->
<svg version="1.1" id="Слой_1" xmlns="http://www.w3.org/2000/svg" xmlns:xlink="http://www.w3.org/1999/xlink" x="0px" y="0px"
	 viewBox="0 0 66 54.85" style="enable-background:new 0 0 66 54.85;" xml:space="preserve">
<style type="text/css">
	.st0{fill:#5CFF60;}
</style>
<g>
	<g>
		<path class="st0" d="M49.77,0.5v7.92H35.49c0.32-0.39,0.54-0.94,0.54-1.71c0-1.17-0.65-1.86-1.17-2.42
			c-0.44-0.48-0.79-0.85-0.79-1.43c0-0.75,0.28-1.16,0.51-1.37c0.2-0.18,0.27-0.47,0.17-0.72c-0.1-0.26-0.35-0.43-0.63-0.43h-3.16
			c-0.28,0-0.53,0.17-0.63,0.43c-0.1,0.25-0.03,0.54,0.17,0.72c0.23,0.21,0.51,0.62,0.51,1.37c0,0.58-0.35,0.95-0.79,1.43
			c-0.52,0.56-1.17,1.26-1.17,2.42c0,0.77,0.22,1.32,0.54,1.71h-8.58c-0.4-0.36-1.64-1.68-1.64-3.84c0-1.82,1.37-3.4,1.38-3.41
			c0.13-0.15,0.16-0.36,0.08-0.54c-0.08-0.18-0.26-0.29-0.46-0.29h-7.44c-0.2,0-0.38,0.12-0.46,0.29s-0.05,0.39,0.08,0.54
			c0.01,0.02,1.38,1.58,1.38,3.41c0,2.16-1.25,3.48-1.64,3.84H0.5C0.22,8.42,0,8.65,0,8.92s0.22,0.5,0.5,0.5h2.35v10.56
			c0,0.28,0.22,0.5,0.5,0.5s0.5-0.22,0.5-0.5V9.42h37.67v10.06H22.45c-0.28,0-0.5,0.22-0.5,0.5v14.63c0,0.28,0.22,0.5,0.5,0.5h19.07
			v5.3H25.39H3.85v-10.9c0-0.28-0.22-0.5-0.5-0.5s-0.5,0.22-0.5,0.5v10.9H0.5c-0.28,0-0.5,0.22-0.5,0.5v13.44
			c0,0.28,0.22,0.5,0.5,0.5h24.89h24.89H65.5c0.28,0,0.5-0.22,0.5-0.5V40.91V0.5C66,0.22,65.78,0,65.5,0H50.27
			C49.99,0,49.77,0.22,49.77,0.5z M30.07,6.71c0-0.77,0.42-1.22,0.9-1.74c0.5-0.53,1.06-1.14,1.06-2.11c0-0.66-0.16-1.15-0.37-1.52
			h1.78c-0.21,0.37-0.37,0.86-0.37,1.52c0,0.97,0.56,1.58,1.06,2.11c0.48,0.52,0.9,0.97,0.9,1.74c0,1.03-0.42,1.71-2.48,1.71
			S30.07,7.74,30.07,6.71z M14.95,4.58c0-1.32-0.56-2.5-1.03-3.24h5.49c-0.47,0.75-1.03,1.92-1.03,3.24c0,1.77,0.71,3.05,1.31,3.84
			h-6.05C14.25,7.64,14.95,6.35,14.95,4.58z M22.95,20.48h21.46v13.63H22.95V20.48z M42.52,35.12h2.39c0.28,0,0.5-0.22,0.5-0.5
			V19.98c0-0.28-0.22-0.5-0.5-0.5h-2.39V9.42h7.25v30.99h-7.25V35.12z M1,41.41h23.89v12.44H1V41.41z M25.89,41.41h23.89v12.44
			H25.89V41.41z M65,53.85H50.77V41.41H65V53.85z M50.77,1H65v39.41H50.77V1z"/>
		<path class="st0" d="M7.52,20.84c-0.24-0.12-0.55-0.03-0.67,0.22L3.92,26.8H0.5c-0.28,0-0.5,0.22-0.5,0.5s0.22,0.5,0.5,0.5h17.19
			c0.28,0,0.5-0.22,0.5-0.5s-0.22-0.5-0.5-0.5h-3.56v-5.51c0-0.28-0.22-0.5-0.5-0.5s-0.5,0.22-0.5,0.5v5.51h-1.61v-5.51
			c0-0.28-0.22-0.5-0.5-0.5s-0.5,0.22-0.5,0.5v5.51H9.59v-5.51c0-0.28-0.22-0.5-0.5-0.5s-0.5,0.22-0.5,0.5v5.51H5.04l2.7-5.28
			C7.87,21.27,7.77,20.97,7.52,20.84z"/>
		<path class="st0" d="M53.44,36.14c0.28,0,0.5-0.22,0.5-0.5v-10.4c0-0.28-0.22-0.5-0.5-0.5s-0.5,0.22-0.5,0.5v10.4
			C52.94,35.91,53.16,36.14,53.44,36.14z"/>
		<path class="st0" d="M53.44,51.27c0.28,0,0.5-0.22,0.5-0.5v-6.28c0-0.28-0.22-0.5-0.5-0.5s-0.5,0.22-0.5,0.5v6.28
			C52.94,51.05,53.16,51.27,53.44,51.27z"/>
		<path class="st0" d="M28.6,43.99c-0.28,0-0.5,0.22-0.5,0.5v6.28c0,0.28,0.22,0.5,0.5,0.5s0.5-0.22,0.5-0.5v-6.28
			C29.1,44.22,28.87,43.99,28.6,43.99z"/>
		<path class="st0" d="M21.83,43.99c-0.28,0-0.5,0.22-0.5,0.5v6.28c0,0.28,0.22,0.5,0.5,0.5s0.5-0.22,0.5-0.5v-6.28
			C22.33,44.22,22.11,43.99,21.83,43.99z"/>
	</g>
</g>
</svg>
