<?xml version="1.0" encoding="utf-8"?>
<!-- Generator: Adobe Illustrator 24.0.0, SVG Export Plug-In . SVG Version: 6.00 Build 0)  -->
<svg version="1.1" id="Слой_1" xmlns="http://www.w3.org/2000/svg" xmlns:xlink="http://www.w3.org/1999/xlink" x="0px" y="0px"
	 viewBox="0 0 66 66" style="enable-background:new 0 0 66 66;" xml:space="preserve">
<style type="text/css">
	.st0{fill:#5CFF60;}
</style>
<g>
	<g>
		<path class="st0" d="M49.8,0.5v7.9H35.5C35.8,8,36,7.5,36,6.7c0-1.2-0.7-1.9-1.2-2.4C34.4,3.8,34,3.5,34,2.9
			c0-0.8,0.3-1.2,0.5-1.4c0.2-0.2,0.3-0.5,0.2-0.7c-0.1-0.3-0.3-0.4-0.6-0.4H31c-0.3,0-0.5,0.2-0.6,0.4c-0.1,0.3,0,0.5,0.2,0.7
			C30.7,1.7,31,2.1,31,2.8c0,0.6-0.4,0.9-0.8,1.4C29.7,4.8,29,5.5,29,6.6c0,0.8,0.2,1.3,0.5,1.7H21c-0.4-0.4-1.6-1.7-1.6-3.8
			c0-1.8,1.4-3.4,1.4-3.4c0.1-0.2,0.2-0.4,0.1-0.5c-0.1-0.2-0.3-0.3-0.5-0.3H13c-0.2,0-0.4,0.1-0.5,0.3c-0.1,0.2-0.1,0.4,0.1,0.5
			c0,0,1.4,1.6,1.4,3.4c0,2.2-1.3,3.5-1.6,3.8H0.5C0.2,8.4,0,8.6,0,8.9c0,0.3,0.2,0.5,0.5,0.5h2.3V20c0,0.3,0.2,0.5,0.5,0.5
			s0.5-0.2,0.5-0.5V9.4h37.7v10.1h-19c-0.3,0-0.5,0.2-0.5,0.5v14.6c0,0.3,0.2,0.5,0.5,0.5h19.1v5.3H25.4H3.8V29.5
			c0-0.3-0.2-0.5-0.5-0.5s-0.5,0.2-0.5,0.5v10.9H0.5c-0.3,0-0.5,0.2-0.5,0.5v13.4c0,0.3,0.2,0.5,0.5,0.5h24.9h24.9h15.2
			c0.3,0,0.5-0.2,0.5-0.5V40.9V0.5C66,0.2,65.8,0,65.5,0H50.3C50,0,49.8,0.2,49.8,0.5z M30.1,6.7c0-0.8,0.4-1.2,0.9-1.7
			c0.5-0.6,1-1.2,1-2.2c0-0.7-0.2-1.2-0.4-1.5h1.8C33.2,1.7,33,2.2,33,2.8c0,1,0.6,1.6,1.1,2.1s0.9,1,0.9,1.7c0,1-0.4,1.7-2.5,1.7
			S30.1,7.7,30.1,6.7z M14.9,4.6c0-1.3-0.6-2.5-1-3.2h5.5c-0.5,0.8-1,1.9-1,3.2c0,1.8,0.7,3.1,1.3,3.8h-6.1
			C14.3,7.6,14.9,6.3,14.9,4.6z M23,20.5h21.5v13.6H23V20.5z M42.5,35.1h2.4c0.3,0,0.5-0.2,0.5-0.5V20c0-0.3-0.2-0.5-0.5-0.5h-2.4
			V9.4h7.3v31h-7.3V35.1z M1,41.4h23.9v12.4H1V41.4z M25.9,41.4h23.9v12.4H25.9V41.4z M65,53.8H50.8V41.4H65V53.8z M50.8,1H65v39.4
			H50.8V1z"/>
		<path class="st0" d="M7.5,20.8c-0.2-0.1-0.6,0-0.7,0.2l-2.9,5.7H0.5c-0.3,0-0.5,0.2-0.5,0.5s0.2,0.5,0.5,0.5h17.2
			c0.3,0,0.5-0.2,0.5-0.5s-0.2-0.5-0.5-0.5h-3.6v-5.5c0-0.3-0.2-0.5-0.5-0.5s-0.5,0.2-0.5,0.5v5.5h-1.6v-5.5c0-0.3-0.2-0.5-0.5-0.5
			s-0.5,0.2-0.5,0.5v5.5H9.6v-5.5c0-0.3-0.2-0.5-0.5-0.5s-0.5,0.2-0.5,0.5v5.5H5l2.7-5.3C7.9,21.2,7.8,20.9,7.5,20.8z"/>
		<path class="st0" d="M53.4,36.1c0.3,0,0.5-0.2,0.5-0.5V25.2c0-0.3-0.2-0.5-0.5-0.5s-0.5,0.2-0.5,0.5v10.4
			C52.9,35.9,53.2,36.1,53.4,36.1z"/>
		<path class="st0" d="M53.4,51.2c0.3,0,0.5-0.2,0.5-0.5v-6.3c0-0.3-0.2-0.5-0.5-0.5s-0.5,0.2-0.5,0.5v6.3
			C52.9,51,53.2,51.2,53.4,51.2z"/>
		<path class="st0" d="M28.6,44c-0.3,0-0.5,0.2-0.5,0.5v6.3c0,0.3,0.2,0.5,0.5,0.5s0.5-0.2,0.5-0.5v-6.3C29.1,44.2,28.9,44,28.6,44z
			"/>
		<path class="st0" d="M21.8,44c-0.3,0-0.5,0.2-0.5,0.5v6.3c0,0.3,0.2,0.5,0.5,0.5s0.5-0.2,0.5-0.5v-6.3C22.3,44.2,22.1,44,21.8,44z
			"/>
	</g>
</g>
</svg>
