<?xml version="1.0" encoding="utf-8"?>
<!-- Generator: Adobe Illustrator 24.0.0, SVG Export Plug-In . SVG Version: 6.00 Build 0)  -->
<svg version="1.1" id="Слой_1" xmlns="http://www.w3.org/2000/svg" xmlns:xlink="http://www.w3.org/1999/xlink" x="0px" y="0px"
	 viewBox="0 0 66 66" style="enable-background:new 0 0 66 66;" xml:space="preserve">
<style type="text/css">
	.st0{fill:#5CFF60;}
</style>
<g>
	<g>
		<path class="st0" d="M29,8.2h8.6c0.2,0,0.3-0.1,0.4-0.3c0.1-0.2,0.1-0.4,0-0.5l-4.6-6.9c-0.1-0.1-0.3-0.2-0.4-0.2
			c-0.2,0-0.3,0.1-0.4,0.2l-4,6.9c-0.1,0.2-0.1,0.3,0,0.5C28.7,8.1,28.8,8.2,29,8.2z M33.1,1.8l3.6,5.4h-6.8L33.1,1.8z"/>
		<path class="st0" d="M40.3,8.2h7.2c0.2,0,0.4-0.1,0.4-0.3s0.1-0.4,0-0.5L43.4,1c-0.1-0.1-0.3-0.2-0.5-0.2c-0.2,0-0.3,0.1-0.4,0.3
			l-2.7,6.4c-0.1,0.2,0,0.3,0,0.5C40,8.1,40.1,8.2,40.3,8.2z M43.1,2.3l3.4,4.9h-5.4L43.1,2.3z"/>
		<path class="st0" d="M27.8,7.5C27.8,7.5,27.8,7.5,27.8,7.5c0.2,0,0.4-0.1,0.4-0.3L32,0.8c0.1-0.2,0.1-0.3,0-0.5
			C31.9,0.1,31.7,0,31.6,0h-7.3c-0.2,0-0.3,0.1-0.4,0.2s-0.1,0.3,0,0.5l3.5,6.5C27.4,7.4,27.6,7.5,27.8,7.5z M30.7,1l-2.9,4.9
			L25.1,1H30.7z"/>
		<path class="st0" d="M39,7.6C39,7.6,39,7.6,39,7.6c0.2,0,0.4-0.1,0.5-0.3l2.8-6.6c0.1-0.1,0-0.3,0-0.5C42.1,0.1,42,0,41.8,0h-7.3
			c-0.2,0-0.3,0.1-0.4,0.3c-0.1,0.2-0.1,0.4,0,0.5l4.4,6.6C38.7,7.6,38.8,7.6,39,7.6z M41,1l-2.2,5.1L35.5,1H41z"/>
		<path class="st0" d="M23.1,0.7c-0.2,0-0.3,0.1-0.4,0.2l-4.5,6.5c-0.1,0.2-0.1,0.4,0,0.5c0.1,0.2,0.3,0.3,0.4,0.3h8
			c0.2,0,0.3-0.1,0.4-0.2c0.1-0.2,0.1-0.3,0-0.5L23.5,1C23.4,0.8,23.2,0.7,23.1,0.7z M19.5,7.2L23,2.2l2.8,5.1H19.5z"/>
		<path class="st0" d="M33,66c12.9,0,23.3-10.5,23.3-23.3c0-6.5-2.8-12.8-7.5-17.2l0,0c-0.1-0.1-5.6-5.3-9.2-8.1l8.2-7.9
			C47.9,9.4,48,9.2,47.9,9c-0.1-0.2-0.3-0.3-0.5-0.3h-7.7c-0.2,0-0.4,0.1-0.5,0.3l-4.6,10.5c-0.1,0-0.1,0-0.2,0l4.2-10.1
			c0.1-0.1,0-0.3-0.1-0.5s-0.3-0.2-0.4-0.2h-9.5c-0.2,0-0.3,0.1-0.4,0.2s-0.1,0.3-0.1,0.4l3.5,10.1c-0.1,0-0.2,0-0.3,0L27.7,9
			c-0.1-0.2-0.3-0.3-0.5-0.3h-8.7c-0.2,0-0.4,0.1-0.5,0.3s0,0.4,0.1,0.6l8.2,7.9c-1.8,1.5-7.9,6.7-9.1,8.2l0,0
			c-4.8,4.4-7.6,10.7-7.6,17.2C9.7,55.5,20.1,66,33,66z M40.1,9.7h6.1L38.5,17l0,0l-2.8,2.6L40.1,9.7z M37.5,9.7l-4.1,10l0,0
			l-0.3,0.6L29.4,9.7H37.5z M26.9,9.7l3.6,10.3l-3-2.9l0,0l-7.7-7.4L26.9,9.7L26.9,9.7z M17.9,26.2c0.1-0.1,5.7-5.4,9.2-8.2l4.2,4
			c0.1,0.1,0.2,0.1,0.3,0.1c0,0,0,0,0,0c0,0,0,0,0,0c0.1,0,0.2,0,0.3-0.1c0.2-0.1,0.3-0.4,0.2-0.6l-0.4-1.2c0.1,0,0.2,0,0.3,0
			l0.5,1.5c0.1,0.2,0.3,0.3,0.5,0.3h0c0,0,0.1,0,0.1,0c0.2,0,0.3-0.1,0.3-0.3l0.6-1.5c0,0,0.1,0,0.1,0l-0.5,1.1
			c-0.1,0.2,0,0.5,0.2,0.6l0,0c0.1,0.1,0.2,0.1,0.3,0.1c0,0,0,0,0,0c0,0,0,0,0,0c0,0,0.1,0,0.1,0c0,0,0,0,0,0c0.1,0,0.1-0.1,0.2-0.1
			l4.3-4.1c3.5,2.8,9.1,8.1,9.2,8.2l0,0c4.6,4.2,7.2,10.2,7.2,16.4C55.3,55,45.3,65,33,65S10.7,55,10.7,42.7
			C10.7,36.5,13.3,30.5,17.9,26.2z"/>
		<path class="st0" d="M33,61.9c10.6,0,19.2-8.6,19.2-19.2S43.6,23.4,33,23.4s-19.2,8.6-19.2,19.2S22.4,61.9,33,61.9z M33,24.5
			c10.1,0,18.2,8.2,18.2,18.2S43.1,60.9,33,60.9s-18.2-8.2-18.2-18.3C14.8,32.6,22.9,24.5,33,24.5z"/>
	</g>
</g>
</svg>
