<?xml version="1.0" encoding="utf-8"?>
<!-- Generator: Adobe Illustrator 24.0.0, SVG Export Plug-In . SVG Version: 6.00 Build 0)  -->
<svg version="1.1" id="Слой_1" xmlns="http://www.w3.org/2000/svg" xmlns:xlink="http://www.w3.org/1999/xlink" x="0px" y="0px"
	 viewBox="0 0 46.63 66" style="enable-background:new 0 0 46.63 66;" xml:space="preserve">
<style type="text/css">
	.st0{fill:#5CFF60;}
</style>
<g>
	<g>
		<path class="st0" d="M19.34,8.21h8.61c0.18,0,0.35-0.1,0.44-0.26s0.08-0.36-0.03-0.51l-4.6-6.87c-0.1-0.14-0.25-0.22-0.43-0.22
			c-0.17,0.01-0.33,0.1-0.42,0.25l-4.01,6.87c-0.09,0.15-0.09,0.35,0,0.5S19.16,8.21,19.34,8.21z M23.38,1.78l3.64,5.43h-6.81
			L23.38,1.78z"/>
		<path class="st0" d="M30.62,8.21h7.15c0.19,0,0.36-0.1,0.44-0.27s0.07-0.36-0.03-0.52l-4.42-6.41c-0.1-0.15-0.28-0.24-0.46-0.21
			c-0.18,0.02-0.34,0.13-0.41,0.3l-2.73,6.41c-0.07,0.16-0.05,0.33,0.04,0.47C30.3,8.13,30.45,8.21,30.62,8.21z M33.45,2.33
			l3.36,4.88h-5.44L33.45,2.33z"/>
		<path class="st0" d="M18.1,7.46C18.11,7.46,18.11,7.46,18.1,7.46c0.19,0,0.35-0.09,0.44-0.25l3.76-6.46c0.09-0.16,0.09-0.35,0-0.5
			C22.22,0.1,22.05,0,21.87,0H14.6c-0.18,0-0.34,0.09-0.43,0.24s-0.09,0.34-0.01,0.49l3.51,6.46C17.76,7.36,17.92,7.46,18.1,7.46z
			 M21,1l-2.88,4.94L15.44,1H21z"/>
		<path class="st0" d="M29.3,7.63c0.02,0,0.03,0,0.05,0c0.18-0.02,0.34-0.13,0.41-0.3l2.82-6.63c0.07-0.15,0.05-0.33-0.04-0.47
			C32.44,0.08,32.29,0,32.12,0h-7.25c-0.18,0-0.35,0.1-0.44,0.26c-0.09,0.16-0.08,0.36,0.02,0.51l4.43,6.63
			C28.98,7.55,29.13,7.63,29.3,7.63z M31.36,1L29.2,6.09L25.8,1H31.36z"/>
		<path class="st0" d="M13.37,0.7c-0.17-0.01-0.34,0.07-0.44,0.22L8.45,7.43C8.34,7.58,8.33,7.78,8.42,7.94
			c0.09,0.17,0.26,0.27,0.44,0.27h8.02c0.18,0,0.34-0.09,0.43-0.24c0.09-0.15,0.09-0.34,0.01-0.49l-3.54-6.51
			C13.7,0.81,13.54,0.71,13.37,0.7z M9.81,7.21l3.48-5.05l2.75,5.05H9.81z"/>
		<path class="st0" d="M23.31,66c12.86,0,23.32-10.46,23.32-23.32c0-6.5-2.75-12.76-7.54-17.17l0,0c-0.06-0.06-5.61-5.31-9.2-8.15
			l8.21-7.85c0.15-0.14,0.19-0.36,0.12-0.55c-0.08-0.19-0.26-0.31-0.46-0.31h-7.71c-0.2,0-0.38,0.12-0.46,0.3l-4.56,10.5
			c-0.06,0-0.11-0.01-0.17-0.01l4.15-10.1c0.06-0.15,0.05-0.33-0.05-0.47s-0.25-0.22-0.42-0.22H19c-0.16,0-0.31,0.08-0.41,0.21
			s-0.12,0.3-0.06,0.45l3.51,10.11c-0.11,0.01-0.22,0.01-0.33,0.02L18,8.99c-0.07-0.2-0.26-0.33-0.47-0.33H8.86
			c-0.2,0-0.39,0.12-0.46,0.31S8.37,9.38,8.52,9.52l8.22,7.87c-1.8,1.49-7.92,6.73-9.13,8.18l-0.05-0.05C2.75,29.92,0,36.18,0,42.68
			C0,55.54,10.46,66,23.31,66z M30.37,9.66h6.14l-7.73,7.39c0,0,0,0,0,0l-2.77,2.65L30.37,9.66z M27.8,9.66l-4.13,10.05c0,0,0,0,0,0
			l-0.26,0.63L19.71,9.66H27.8z M17.17,9.66l3.65,10.27l-2.99-2.86c0,0,0,0,0,0l-7.72-7.4H17.17z M8.23,26.24
			c0.06-0.06,5.68-5.37,9.22-8.16l4.2,4.03c0.08,0.07,0.17,0.11,0.27,0.13c0.01,0,0.02,0.01,0.04,0.01c0.01,0,0.02,0.01,0.03,0.01
			c0.09,0,0.19-0.03,0.27-0.08c0.19-0.13,0.28-0.37,0.2-0.59l-0.41-1.16c0.11-0.01,0.21-0.01,0.32-0.02l0.52,1.5
			c0.07,0.2,0.25,0.33,0.46,0.34c0,0,0.01,0,0.01,0c0.04,0,0.07-0.02,0.11-0.03c0.16-0.04,0.29-0.12,0.35-0.28l0.63-1.52
			c0.05,0,0.1,0,0.15,0.01l-0.5,1.15c-0.09,0.22-0.02,0.47,0.17,0.61c0,0,0,0,0,0c0.08,0.06,0.17,0.08,0.26,0.08
			c0.01,0,0.01,0.01,0.02,0.01c0.01,0,0.01,0,0.02,0c0.04,0,0.09-0.01,0.13-0.02c0.01,0,0.03-0.01,0.04-0.01
			c0.06-0.02,0.11-0.06,0.16-0.1l4.25-4.06c3.55,2.8,9.13,8.07,9.23,8.17c0,0,0.01,0.01,0.01,0.01c4.59,4.22,7.23,10.21,7.23,16.44
			C45.63,54.99,35.62,65,23.31,65S1,54.99,1,42.68C1,36.46,3.63,30.47,8.23,26.24z"/>
		<path class="st0" d="M23.31,61.92c10.61,0,19.24-8.63,19.24-19.24s-8.63-19.24-19.24-19.24S4.08,32.08,4.08,42.68
			S12.71,61.92,23.31,61.92z M23.31,24.45c10.06,0,18.24,8.18,18.24,18.24c0,10.06-8.18,18.24-18.24,18.24S5.08,52.74,5.08,42.68
			C5.08,32.63,13.26,24.45,23.31,24.45z"/>
	</g>
</g>
</svg>
