<?xml version="1.0" encoding="utf-8"?>
<!-- Generator: Adobe Illustrator 24.0.0, SVG Export Plug-In . SVG Version: 6.00 Build 0)  -->
<svg version="1.1" id="Слой_1" xmlns="http://www.w3.org/2000/svg" xmlns:xlink="http://www.w3.org/1999/xlink" x="0px" y="0px"
	 viewBox="0 0 60 72" style="enable-background:new 0 0 60 72;" xml:space="preserve">
<style type="text/css">
	.st0{fill:#5CFF60;}
</style>
<g>
	<g>
		<path class="st0" d="M1.6,3C1.3,3,1,3.2,1,3.5C1,3.7,1.2,4,1.5,4c7.4,0.6,12-0.7,15.8-1.7C19.6,1.6,21.7,1,23.9,1c0,0,0,0,0,0
			c3.8,0,5.4,2.3,5.6,2.8c0,0,0,0,0,0c0,0.1,0.1,0.2,0.2,0.2c0,0,0,0,0,0c0,0,0,0,0.1,0c0,0,0.1,0,0.2,0s0.1,0,0.2,0
			c0,0,0.1,0,0.1,0c0,0,0,0,0,0c0.1-0.1,0.1-0.1,0.2-0.2c0,0,0,0,0,0C30.7,3.3,32.3,1,36.1,1c0,0,0,0,0,0c2.3,0,4.3,0.6,6.7,1.3
			c3.8,1.1,8.4,2.4,15.8,1.7C58.8,4,59,3.7,59,3.5C59,3.2,58.7,3,58.5,3C51.3,3.6,46.9,2.4,43,1.3c-2.4-0.7-4.5-1.3-7-1.3
			c0,0,0,0,0,0c-3.4,0-5.2,1.6-6.1,2.7C29.1,1.5,27.1,0,23.9,0c0,0,0,0,0,0c-2.4,0-4.5,0.6-7,1.3C13.1,2.4,8.7,3.6,1.6,3z"/>
		<path class="st0" d="M23.9,6.1c-2.4,0-4.5,0.6-7,1.3C14.5,8,11.7,8.8,8,9.1c-0.3,0-0.5,0.3-0.5,0.5c0,0.3,0.2,0.5,0.5,0.5
			c0,0,0,0,0,0c3.8-0.3,6.6-1.1,9.2-1.8c2.4-0.7,4.4-1.3,6.7-1.3c0.3,0,0.5-0.2,0.5-0.5C24.4,6.3,24.2,6.1,23.9,6.1z"/>
		<path class="st0" d="M23.9,17.9c-1.9,0-3.6,0.4-5.1,0.8c-0.3,0.1-0.4,0.3-0.4,0.6c0.1,0.2,0.3,0.4,0.5,0.4c0,0,0.1,0,0.1,0
			c1.5-0.4,3.1-0.7,4.9-0.7c0.3,0,0.5-0.2,0.5-0.5C24.4,18.2,24.2,17.9,23.9,17.9z"/>
		<path class="st0" d="M52,9.1c-3.7-0.3-6.5-1.1-9-1.8c-2.4-0.7-4.5-1.3-7-1.3c-0.3,0-0.5,0.2-0.5,0.5s0.2,0.5,0.5,0.5
			c2.3,0,4.3,0.6,6.7,1.3c2.5,0.7,5.4,1.5,9.2,1.8c0,0,0,0,0,0c0.3,0,0.5-0.2,0.5-0.5C52.5,9.4,52.3,9.1,52,9.1z"/>
		<path class="st0" d="M43,19.2c-2.4-0.7-4.5-1.3-7-1.3c-0.3,0-0.5,0.2-0.5,0.5s0.2,0.5,0.5,0.5c2.3,0,4.3,0.6,6.7,1.3
			c2.5,0.7,5.4,1.5,9.1,1.8c0,0,0,0,0,0c0.3,0,0.5-0.2,0.5-0.5c0-0.3-0.2-0.5-0.5-0.5C48.3,20.7,45.5,19.9,43,19.2z"/>
		<path class="st0" d="M58.5,9.2c-0.3,0-0.5,0.2-0.5,0.5v17.1c0,0.3,0.2,0.5,0.5,0.5s0.5-0.2,0.5-0.5V9.7C59,9.4,58.8,9.2,58.5,9.2z
			"/>
		<path class="st0" d="M13.7,14.8C13.7,14.8,13.7,14.8,13.7,14.8C13.7,14.7,13.7,14.7,13.7,14.8c0-0.1,0-0.1,0-0.1c0,0,0-0.1,0-0.1
			c0,0,0,0-0.1-0.1c0,0-0.1,0-0.1-0.1c0,0,0,0-0.1,0c0,0-0.1,0-0.1,0c0,0-0.1,0-0.1,0c0,0,0,0-0.1,0s0,0-0.1,0s0,0-0.1,0
			c-1.7,0.4-3.4,0.6-5.1,0.7c0,0-0.1,0-0.1,0c0,0-0.1,0-0.1,0c0,0-0.1,0-0.1,0c0,0-0.1,0-0.1,0.1c0,0,0,0-0.1,0.1c0,0,0,0-0.1,0.1
			c0,0,0,0.1,0,0.1s0,0,0,0.1v5.7c0,0,0,0,0,0c0,0,0,0,0,0c0,0,0,0.1,0,0.1s0,0,0,0.1c0,0,0,0.1,0.1,0.1c0,0,0,0,0,0.1
			c0,0,0.1,0,0.1,0.1c0,0,0,0,0.1,0c0.1,0,0.1,0,0.2,0l0,0l0,0l0,0c0,0,0,0,0,0c1.7-0.1,3.4-0.4,5.2-0.8c0,0,0,0,0,0
			c0,0,0.1,0,0.1,0s0.1,0,0.1,0s0.1,0,0.1-0.1c0,0,0,0,0.1-0.1c0,0,0-0.1,0-0.1c0,0,0-0.1,0-0.1c0,0,0,0,0,0L13.7,14.8L13.7,14.8z
			 M8.6,16c1.4-0.1,2.7-0.3,4.1-0.6v4.7c-1.4,0.3-2.8,0.5-4.1,0.6V16z"/>
		<path class="st0" d="M16,37.1c-0.3,0.1-0.4,0.4-0.3,0.7c0.1,0.2,0.3,0.3,0.5,0.3c0.1,0,0.1,0,0.2,0c3.5-1.3,8.1-2.5,9.6-1.1
			c0.2,0.2,0.5,0.2,0.7,0c0.2-0.2,0.2-0.5,0-0.7C24.3,34.1,17.9,36.4,16,37.1z"/>
		<path class="st0" d="M58.4,32c-7.2,0.6-11.6-0.6-15.4-1.7c-2.4-0.7-4.5-1.3-7-1.3c0,0,0,0,0,0c-3.4,0-5.2,1.6-6.1,2.7
			c-0.9-1.2-2.9-2.7-6.1-2.7c0,0,0,0,0,0c-2.4,0-4.5,0.6-7,1.3c-3.8,1.1-8.1,2.3-15,1.7V9.7c0-0.3-0.2-0.5-0.5-0.5S1,9.4,1,9.7v22.8
			c0,0,0,0,0,0.1c0,0,0,0.1,0,0.1s0,0.1,0,0.1c0,0,0,0,0,0.1c0,0,0,0,0.1,0.1c0,0,0,0,0.1,0c0,0,0.1,0,0.1,0c0,0,0,0,0.1,0
			c7.4,0.6,12-0.7,15.8-1.7c2.4-0.7,4.4-1.3,6.7-1.3c0,0,0,0,0,0c3.8,0,5.4,2.3,5.6,2.8c0,0,0,0,0,0c0,0.1,0.1,0.2,0.2,0.2
			c0,0,0,0,0,0c0,0,0,0,0.1,0c0,0,0.1,0,0.2,0s0.1,0,0.2,0c0,0,0.1,0,0.1,0c0,0,0,0,0,0c0.1-0.1,0.1-0.1,0.2-0.2c0,0,0,0,0,0
			c0.2-0.6,1.8-2.8,5.6-2.8c0,0,0,0,0,0c2.3,0,4.3,0.6,6.7,1.3c3.8,1.1,8.4,2.4,15.8,1.7c0.3,0,0.5-0.3,0.5-0.5
			C59,32.2,58.7,31.9,58.4,32z"/>
		<path class="st0" d="M44,37.1c-1.9-0.7-8.3-3-10.6-0.9c-0.2,0.2-0.2,0.5,0,0.7s0.5,0.2,0.7,0c1.5-1.3,6.1-0.2,9.6,1.1
			c0.1,0,0.1,0,0.2,0c0.2,0,0.4-0.1,0.5-0.3C44.3,37.5,44.2,37.2,44,37.1z"/>
	</g>
</g>
</svg>
