<?xml version="1.0" encoding="utf-8"?>
<!-- Generator: Adobe Illustrator 24.0.0, SVG Export Plug-In . SVG Version: 6.00 Build 0)  -->
<svg version="1.1" id="Слой_1" xmlns="http://www.w3.org/2000/svg" xmlns:xlink="http://www.w3.org/1999/xlink" x="0px" y="0px"
	 viewBox="0 0 249.36 52.34" style="enable-background:new 0 0 249.36 52.34;" xml:space="preserve">
<style type="text/css">
	.st0{fill:#5CFF60;}
</style>
<g>
	<g>
		<path class="st0" d="M21.62,0.69L0,51.65h7.66l5.69-13.33h22.09l5.78,13.33h7.72L26.73,0.69H21.62z M16.28,31.36l7.97-18.82
			l8.18,18.82H16.28z"/>
		<path class="st0" d="M119.72,0.69L98.1,51.65h7.66l5.69-13.33h22.09l5.78,13.33h7.72l-22.2-50.96H119.72z M114.38,31.36
			l7.97-18.82l8.18,18.82H114.38z"/>
		<path class="st0" d="M167.17,0.69h-16.03v50.96h16.03c14.95,0,25.81-10.74,25.81-25.53C192.98,11.39,182.12,0.69,167.17,0.69z
			 M158.23,7.68h8.89c10.86,0,18.74,7.76,18.74,18.44c0,10.74-7.88,18.54-18.74,18.54h-8.89V7.68z"/>
		<path class="st0" d="M223.15,0c-14.94,0-26.2,11.27-26.2,26.22c0,14.89,11.26,26.12,26.2,26.12c15.18,0,26.2-10.98,26.2-26.12
			C249.36,11.27,238.09,0,223.15,0z M223.15,45.29c-11.06,0-19.08-8.02-19.08-19.07c0-11.1,8.03-19.16,19.08-19.16
			s19.08,8.06,19.08,19.16C242.24,37.27,234.21,45.29,223.15,45.29z"/>
		<path class="st0" d="M69.02,25.13v7h22.06c-1.95,7.91-8.63,13.05-17.37,13.05c-10.78,0-18.31-7.8-18.31-18.97
			c0-11.04,7.7-19.05,18.31-19.05c8.31,0,15.31,4.9,17.14,11.93h7.26l-0.18-0.84C95.71,7.75,85.5,0.12,73.67,0.12
			c-14.48,0-25.4,11.22-25.4,26.1c0,15.08,10.69,26.02,25.43,26.02c14.24,0,24.54-10.1,25.05-24.55l0.09-2.55H69.02z"/>
	</g>
</g>
</svg>
