<?xml version="1.0" encoding="utf-8"?>
<!-- Generator: Adobe Illustrator 24.0.0, SVG Export Plug-In . SVG Version: 6.00 Build 0)  -->
<svg version="1.1" id="Слой_1" xmlns="http://www.w3.org/2000/svg" xmlns:xlink="http://www.w3.org/1999/xlink" x="0px" y="0px"
	 viewBox="0 0 51 57" style="enable-background:new 0 0 51 57;" xml:space="preserve">
<style type="text/css">
	.st0{fill:#5CFF60;}
</style>
<g>
	<g>
		<path class="st0" d="M4.91,2.66c-0.28,0-0.5,0.22-0.5,0.5v4.66c0,0.28,0.22,0.5,0.5,0.5h3.1c0.28,0,0.5-0.22,0.5-0.5V3.16
			c0-0.28-0.22-0.5-0.5-0.5H4.91z M7.51,7.32h-2.1V3.66h2.1V7.32z"/>
		<path class="st0" d="M12.7,7.82c0,0.28,0.22,0.5,0.5,0.5h3.1c0.28,0,0.5-0.22,0.5-0.5V3.16c0-0.28-0.22-0.5-0.5-0.5h-3.1
			c-0.28,0-0.5,0.22-0.5,0.5C12.7,3.16,12.7,7.82,12.7,7.82z M13.7,3.66h2.1v3.66h-2.1C13.7,7.32,13.7,3.66,13.7,3.66z"/>
		<path class="st0" d="M24.6,8.32c0.28,0,0.5-0.22,0.5-0.5V3.16c0-0.28-0.22-0.5-0.5-0.5h-3.1c-0.28,0-0.5,0.22-0.5,0.5v4.66
			c0,0.28,0.22,0.5,0.5,0.5H24.6z M21.99,3.66h2.1v3.66h-2.1V3.66z"/>
		<path class="st0" d="M32.88,8.32c0.28,0,0.5-0.22,0.5-0.5V3.16c0-0.28-0.22-0.5-0.5-0.5h-3.1c-0.28,0-0.5,0.22-0.5,0.5v4.66
			c0,0.28,0.22,0.5,0.5,0.5H32.88z M30.28,3.66h2.1v3.66h-2.1V3.66z"/>
		<path class="st0" d="M41.17,8.32c0.28,0,0.5-0.22,0.5-0.5V3.16c0-0.28-0.22-0.5-0.5-0.5h-3.1c-0.28,0-0.5,0.22-0.5,0.5v4.66
			c0,0.28,0.22,0.5,0.5,0.5H41.17z M38.56,3.66h2.1v3.66h-2.1V3.66z"/>
		<path class="st0" d="M4.91,30.52c-0.28,0-0.5,0.22-0.5,0.5v4.66c0,0.28,0.22,0.5,0.5,0.5h3.1c0.28,0,0.5-0.22,0.5-0.5v-4.66
			c0-0.28-0.22-0.5-0.5-0.5H4.91z M7.51,35.18h-2.1v-3.66h2.1V35.18z"/>
		<path class="st0" d="M13.2,30.52c-0.28,0-0.5,0.22-0.5,0.5v4.66c0,0.28,0.22,0.5,0.5,0.5h3.1c0.28,0,0.5-0.22,0.5-0.5v-4.66
			c0-0.28-0.22-0.5-0.5-0.5H13.2z M15.81,35.18h-2.1v-3.66h2.1C15.81,31.52,15.81,35.18,15.81,35.18z"/>
		<path class="st0" d="M21.49,30.52c-0.28,0-0.5,0.22-0.5,0.5v4.66c0,0.28,0.22,0.5,0.5,0.5h3.1c0.28,0,0.5-0.22,0.5-0.5v-4.66
			c0-0.28-0.22-0.5-0.5-0.5H21.49z M24.1,35.18H22v-3.66h2.1V35.18z"/>
		<path class="st0" d="M29.78,30.52c-0.28,0-0.5,0.22-0.5,0.5v4.66c0,0.28,0.22,0.5,0.5,0.5h3.1c0.28,0,0.5-0.22,0.5-0.5v-4.66
			c0-0.28-0.22-0.5-0.5-0.5H29.78z M32.38,35.18h-2.1v-3.66h2.1V35.18z"/>
		<path class="st0" d="M41.17,30.52h-3.1c-0.28,0-0.5,0.22-0.5,0.5v4.66c0,0.28,0.22,0.5,0.5,0.5h3.1c0.28,0,0.5-0.22,0.5-0.5v-4.66
			C41.67,30.75,41.44,30.52,41.17,30.52z M40.67,35.18h-2.1v-3.66h2.1V35.18z"/>
		<path class="st0" d="M47.66,0H14.76c-0.28,0-0.5,0.22-0.5,0.5S14.48,1,14.76,1h32.91c1.07,0,1.95,0.78,2.12,1.79
			c-0.09-0.08-0.2-0.13-0.33-0.13h-3.1c-0.28,0-0.5,0.22-0.5,0.5v4.66c0,0.28,0.22,0.5,0.5,0.5h3.1c0.15,0,0.28-0.07,0.37-0.17v2
			H1.16V3.17c0-1.19,0.97-2.16,2.16-2.16h2.07c0.28,0,0.5-0.22,0.5-0.5s-0.22-0.5-0.5-0.5H3.32c-1.74,0-3.16,1.42-3.16,3.16v32.52
			c0,1.74,1.42,3.16,3.16,3.16h34.72c0.28,0,0.5-0.22,0.5-0.5s-0.22-0.5-0.5-0.5H3.32c-1.19,0-2.16-0.97-2.16-2.16v-7.41h48.67v2.42
			c-0.09-0.1-0.22-0.17-0.37-0.17h-3.1c-0.28,0-0.5,0.22-0.5,0.5v4.66c0,0.28,0.22,0.5,0.5,0.5h3.1c0.13,0,0.24-0.05,0.33-0.13
			c-0.18,1.02-1.06,1.79-2.12,1.79c-0.28,0-0.5,0.22-0.5,0.5s0.22,0.5,0.5,0.5c1.74,0,3.16-1.42,3.16-3.16V24.22
			c0-0.28-0.22-0.5-0.5-0.5s-0.5,0.22-0.5,0.5v3.05h-8.87V11.14h8.87v4.18c0,0.28,0.22,0.5,0.5,0.5s0.5-0.22,0.5-0.5V3.16
			C50.83,1.42,49.4,0,47.66,0z M48.95,7.32h-2.1V3.66h2.1V7.32z M48.95,35.18h-2.1v-3.66h2.1V35.18z M1.16,11.14h9.01v16.13H1.16
			V11.14z M39.97,27.27H11.18V11.14h28.78v16.13H39.97z"/>
	</g>
</g>
</svg>
