<?xml version="1.0" encoding="utf-8"?>
<!-- Generator: Adobe Illustrator 24.0.0, SVG Export Plug-In . SVG Version: 6.00 Build 0)  -->
<svg version="1.1" id="Слой_1" xmlns="http://www.w3.org/2000/svg" xmlns:xlink="http://www.w3.org/1999/xlink" x="0px" y="0px"
	 viewBox="0 0 234.51 234.52" style="enable-background:new 0 0 234.51 234.52;" xml:space="preserve">
<style type="text/css">
	.st0{fill:#F2F2F2;}
</style>
<g>
	<path class="st0" d="M150.96,221.82c-0.57,0-1.13-0.21-1.56-0.65l-10.55-10.55c-0.42-0.42-0.65-0.97-0.65-1.56s0.23-1.14,0.65-1.56
		l10.55-10.55c0.86-0.86,2.26-0.86,3.12,0l2.15,2.15c23.63-26.63,28-65.43,10.84-96.71c-0.11-0.19-0.07-0.44,0.08-0.59l11.52-11.52
		c0.2-0.2,0.51-0.2,0.71,0l42.85,42.85c3.76-1.26,7.96-0.29,10.77,2.52c4.09,4.09,4.09,10.75,0,14.85c-4.09,4.09-10.75,4.09-14.85,0
		l0,0c-2.81-2.81-3.78-7.01-2.52-10.77l-38.79-38.79c17.28,34.39,11.81,76.04-14,104.79l1.78,1.78c0.42,0.42,0.65,0.97,0.65,1.56
		s-0.23,1.14-0.65,1.56l-10.55,10.55C152.09,221.6,151.52,221.82,150.96,221.82z M150.96,197.31c-0.31,0-0.62,0.12-0.85,0.35
		l-10.55,10.55c-0.23,0.23-0.35,0.53-0.35,0.86c0,0.32,0.13,0.63,0.35,0.85l10.55,10.55c0.47,0.47,1.24,0.47,1.71,0l10.55-10.55
		c0.23-0.23,0.35-0.53,0.35-0.85c0-0.32-0.13-0.63-0.35-0.86l-2.12-2.12c-0.19-0.19-0.2-0.49-0.02-0.69
		c26.54-29.25,31.62-72.21,12.65-106.9c-0.12-0.22-0.06-0.49,0.14-0.64c0.2-0.15,0.48-0.13,0.65,0.05L215,139.24
		c0.14,0.14,0.18,0.34,0.12,0.53c-1.29,3.47-0.43,7.41,2.18,10.02c3.7,3.7,9.73,3.7,13.43,0c3.7-3.7,3.7-9.73,0-13.43
		c-2.61-2.61-6.54-3.47-10.02-2.18c-0.18,0.07-0.39,0.02-0.53-0.12l-42.72-42.72l-10.91,10.91c17.24,31.75,12.64,71.06-11.5,97.92
		c-0.09,0.1-0.22,0.16-0.36,0.17c-0.13,0.02-0.27-0.05-0.37-0.15l-2.52-2.53C151.57,197.43,151.27,197.31,150.96,197.31z"/>
	<path class="st0" d="M154.49,101.12c-1.23,0-2.47-0.47-3.41-1.41L134.8,83.44l0,0c-1.88-1.88-1.88-4.94,0-6.82l16.28-16.28
		c0.91-0.91,2.12-1.41,3.41-1.41c1.29,0,2.5,0.5,3.41,1.41l16.28,16.28c0.91,0.91,1.41,2.12,1.41,3.41s-0.5,2.5-1.41,3.41
		L157.9,99.71C156.96,100.65,155.73,101.12,154.49,101.12z M135.51,82.73l16.28,16.28c1.49,1.49,3.92,1.49,5.41,0l16.28-16.28
		c1.49-1.49,1.49-3.92,0-5.41l-16.28-16.28c-1.44-1.44-3.96-1.44-5.41,0l-16.28,16.28C134.02,78.81,134.02,81.24,135.51,82.73
		L135.51,82.73z"/>
	<path class="st0" d="M46.46,234.52c-1.67,0-3.7-0.66-6.02-2.69L2.71,194.1c-3.41-3.9-2.99-6.98-2.03-8.88
		c2.49-4.96,11.7-8.02,22.01-7.32l9.93-49.65c0.03-0.17,0.15-0.31,0.32-0.37l97.81-36.53c0.18-0.07,0.39-0.02,0.53,0.12l2.95,2.95
		c0.2,0.2,0.2,0.51,0,0.71l-53.47,53.47c-0.16,0.15-0.39,0.19-0.59,0.09c-5.33-2.83-11.79-1.85-16.06,2.42
		c-5.33,5.33-5.33,14,0,19.33c2.58,2.58,6.01,4,9.66,4c3.65,0,7.08-1.42,9.66-4c4.27-4.27,5.24-10.72,2.42-16.06
		c-0.1-0.19-0.07-0.43,0.09-0.59l53.47-53.47c0.2-0.2,0.51-0.2,0.71,0l2.95,2.95c0.14,0.14,0.18,0.34,0.11,0.53l-36.53,97.81
		c-0.06,0.16-0.2,0.28-0.37,0.32l-49.65,9.93c0.69,10.31-2.36,19.53-7.32,22.01C48.54,234.22,47.58,234.52,46.46,234.52z
		 M19.75,178.79c-8.72,0-16.09,2.7-18.18,6.87c-1.17,2.34-0.52,5.02,1.87,7.75l37.69,37.68c2.71,2.37,5.39,3.02,7.73,1.84
		c4.68-2.35,7.52-11.38,6.74-21.49c-0.02-0.25,0.15-0.48,0.4-0.53l49.81-9.96l36.32-97.25l-2.37-2.37L86.9,154.21
		c2.82,5.66,1.73,12.41-2.76,16.9c-2.77,2.77-6.45,4.3-10.37,4.3c-3.92,0-7.6-1.53-10.37-4.3s-4.3-6.45-4.3-10.37
		s1.53-7.6,4.3-10.37c4.5-4.5,11.25-5.59,16.9-2.76l52.86-52.86l-2.37-2.37l-97.25,36.32l-9.96,49.81c-0.05,0.25-0.28,0.43-0.53,0.4
		C21.94,178.84,20.84,178.79,19.75,178.79z"/>
	<path class="st0" d="M25.45,96.31c-0.57,0-1.13-0.21-1.56-0.65L13.35,85.12c-0.42-0.42-0.65-0.97-0.65-1.56s0.23-1.14,0.65-1.56
		l10.55-10.55c0.86-0.86,2.26-0.86,3.12,0l1.78,1.78c28.74-25.81,70.4-31.27,104.79-14L94.79,20.44c-3.76,1.26-7.96,0.29-10.77-2.52
		c-1.98-1.98-3.08-4.62-3.08-7.42c0-2.8,1.09-5.44,3.08-7.42C86,1.09,88.64,0,91.45,0c2.8,0,5.44,1.09,7.42,3.08
		c2.81,2.81,3.78,7,2.52,10.77l42.85,42.85c0.09,0.09,0.15,0.22,0.15,0.35s-0.05,0.26-0.15,0.35l-11.52,11.52
		c-0.16,0.16-0.4,0.19-0.59,0.08c-31.28-17.16-70.08-12.79-96.71,10.84L37.56,82c0.42,0.42,0.65,0.97,0.65,1.56
		s-0.23,1.14-0.65,1.56L27.02,95.67C26.59,96.1,26.02,96.31,25.45,96.31z M25.45,71.81c-0.31,0-0.62,0.12-0.85,0.35L14.05,82.71
		c-0.23,0.23-0.35,0.53-0.35,0.85c0,0.32,0.13,0.63,0.35,0.86L24.6,94.96c0.47,0.47,1.24,0.47,1.71,0l10.55-10.55
		c0.23-0.23,0.35-0.53,0.35-0.86c0-0.32-0.13-0.63-0.35-0.85l-2.52-2.52c-0.1-0.1-0.15-0.23-0.15-0.37c0-0.14,0.06-0.27,0.17-0.36
		c26.87-24.14,66.17-28.74,97.92-11.5l10.91-10.91l-42.72-42.72c-0.14-0.14-0.18-0.34-0.12-0.53c1.29-3.47,0.43-7.41-2.18-10.02
		C96.37,1.99,93.98,1,91.45,1c-2.54,0-4.92,0.99-6.72,2.78c-1.79,1.79-2.78,4.18-2.78,6.72c0,2.54,0.99,4.92,2.78,6.72
		c2.61,2.61,6.55,3.47,10.02,2.18c0.18-0.07,0.39-0.02,0.53,0.12l41.34,41.34c0.18,0.18,0.2,0.45,0.05,0.65
		c-0.15,0.2-0.42,0.26-0.64,0.14c-34.69-18.97-77.65-13.88-106.9,12.65c-0.2,0.18-0.5,0.17-0.69-0.02l-2.12-2.12
		C26.07,71.92,25.76,71.81,25.45,71.81z"/>
</g>
</svg>
