<?xml version="1.0" encoding="utf-8"?>
<!-- Generator: Adobe Illustrator 24.0.0, SVG Export Plug-In . SVG Version: 6.00 Build 0)  -->
<svg version="1.1" id="Слой_1" xmlns="http://www.w3.org/2000/svg" xmlns:xlink="http://www.w3.org/1999/xlink" x="0px" y="0px"
	 viewBox="0 0 66 66" style="enable-background:new 0 0 66 66;" xml:space="preserve">
<style type="text/css">
	.st0{fill:#5CFF60;}
</style>
<g>
	<g>
		<path class="st0" d="M47,17.9c0,0.3,0.3,0.5,0.6,0.4c0.3,0,0.5-0.3,0.4-0.6c-0.4-2.5-2.6-4.5-5.2-4.5H5.2c-2.9,0-5.2,2.3-5.2,5.2
			v29.1c0,2.9,2.3,5.2,5.2,5.2h37.5c2.9,0,5.2-2.3,5.2-5.2V40c0-0.3-0.2-0.5-0.5-0.5S47,39.7,47,40v7.5c0,2.3-1.9,4.2-4.2,4.2H5.2
			c-2.3,0-4.2-1.9-4.2-4.2V18.5c0-2.3,1.9-4.2,4.2-4.2h37.5C44.9,14.2,46.7,15.8,47,17.9z"/>
		<path class="st0" d="M25.3,47.8c0.3,0,0.5-0.2,0.5-0.5v-1.5h6.5c0.3,0,0.5-0.2,0.5-0.5V19.5c0-0.3-0.2-0.5-0.5-0.5h-26
			c-0.3,0-0.5,0.2-0.5,0.5v5H5c-0.3,0-0.5,0.2-0.5,0.5s0.2,0.5,0.5,0.5h2.6c0.3,0,0.5-0.2,0.5-0.5S8,24.5,7.7,24.5H6.9V20h8v17.1h-8
			v-4.2h0.8c0.3,0,0.5-0.2,0.5-0.5c0-0.3-0.2-0.5-0.5-0.5H5c-0.3,0-0.5,0.2-0.5,0.5c0,0.3,0.2,0.5,0.5,0.5h0.8v12.4
			c0,0.3,0.2,0.5,0.5,0.5h12.4v1.5c0,0.3,0.2,0.5,0.5,0.5s0.5-0.2,0.5-0.5v-1.5h5.1v1.5C24.8,47.6,25,47.8,25.3,47.8z M19.7,44.8
			v-1.5c0-0.3-0.2-0.5-0.5-0.5s-0.5,0.2-0.5,0.5v1.5H6.9v-6.7h8.5c0.3,0,0.5-0.2,0.5-0.5v-4h9.3c0.3,0,0.5-0.2,0.5-0.5
			s-0.2-0.5-0.5-0.5h-9.3V20h8.8v7.2c0,0.3,0.2,0.5,0.5,0.5s0.5-0.2,0.5-0.5V20h6.2v24.8h-6v-1.5c0-0.3-0.2-0.5-0.5-0.5
			s-0.5,0.2-0.5,0.5v1.5H19.7z"/>
		<path class="st0" d="M66,19.3c-0.1-0.2-0.3-0.3-0.5-0.3h-27c-0.3,0-0.5,0.2-0.5,0.5v27.4c0,0.2,0.1,0.4,0.3,0.5c0.1,0,0.1,0,0.2,0
			c0.1,0,0.3-0.1,0.4-0.2l27-27.4C66,19.7,66,19.5,66,19.3z M39,45.7v-6.6h1.1c0.3,0,0.5-0.2,0.5-0.5c0-0.3-0.2-0.5-0.5-0.5H39v-3.7
			h1.1c0.3,0,0.5-0.2,0.5-0.5c0-0.3-0.2-0.5-0.5-0.5H39v-3.7h1.1c0.3,0,0.5-0.2,0.5-0.5s-0.2-0.5-0.5-0.5H39V25h1.1
			c0.3,0,0.5-0.2,0.5-0.5c0-0.3-0.2-0.5-0.5-0.5H39v-4h25.3L39,45.7z"/>
		<path class="st0" d="M42.9,35.7c0.1,0,0.1,0,0.2,0c0.1,0,0.3,0,0.4-0.1L54,24.9c0.1-0.1,0.2-0.4,0.1-0.5C54,24.1,53.9,24,53.7,24
			H43.1c-0.3,0-0.5,0.2-0.5,0.5v10.7C42.6,35.4,42.7,35.6,42.9,35.7z M43.6,25h8.8l-8.8,9V25z"/>
	</g>
</g>
</svg>
