<?xml version="1.0" encoding="utf-8"?>
<!-- Generator: Adobe Illustrator 24.0.0, SVG Export Plug-In . SVG Version: 6.00 Build 0)  -->
<svg version="1.1" id="Слой_1" xmlns="http://www.w3.org/2000/svg" xmlns:xlink="http://www.w3.org/1999/xlink" x="0px" y="0px"
	 viewBox="0 0 66 39.51" style="enable-background:new 0 0 66 39.51;" xml:space="preserve">
<style type="text/css">
	.st0{fill:#5CFF60;}
</style>
<g>
	<g>
		<path class="st0" d="M46.96,4.61c0.04,0.27,0.29,0.46,0.57,0.42c0.27-0.04,0.46-0.29,0.42-0.57C47.57,1.92,45.35,0,42.78,0H5.23
			C2.34,0,0,2.34,0,5.23v29.05c0,2.88,2.34,5.23,5.23,5.23h37.55c2.88,0,5.23-2.34,5.23-5.23v-7.54c0-0.28-0.22-0.5-0.5-0.5
			s-0.5,0.22-0.5,0.5v7.54c0,2.33-1.9,4.23-4.23,4.23H5.23C2.9,38.51,1,36.61,1,34.28V5.23C1,2.9,2.9,1,5.23,1h37.55
			C44.86,1,46.66,2.55,46.96,4.61z"/>
		<path class="st0" d="M25.32,34.6c0.28,0,0.5-0.22,0.5-0.5v-1.53h6.52c0.28,0,0.5-0.22,0.5-0.5V6.24c0-0.28-0.22-0.5-0.5-0.5H6.36
			c-0.28,0-0.5,0.22-0.5,0.5v4.98H5.05c-0.28,0-0.5,0.22-0.5,0.5s0.22,0.5,0.5,0.5h2.63c0.28,0,0.5-0.22,0.5-0.5s-0.22-0.5-0.5-0.5
			H6.86V6.74h8.01v17.1H6.86v-4.18h0.81c0.28,0,0.5-0.22,0.5-0.5s-0.22-0.5-0.5-0.5H5.05c-0.28,0-0.5,0.22-0.5,0.5s0.22,0.5,0.5,0.5
			h0.81v12.42c0,0.28,0.22,0.5,0.5,0.5h12.38v1.53c0,0.28,0.22,0.5,0.5,0.5s0.5-0.22,0.5-0.5v-1.53h5.08v1.53
			C24.82,34.38,25.05,34.6,25.32,34.6z M19.74,31.57v-1.53c0-0.28-0.22-0.5-0.5-0.5s-0.5,0.22-0.5,0.5v1.53H6.86v-6.73h8.51
			c0.28,0,0.5-0.22,0.5-0.5v-4.01h9.26c0.28,0,0.5-0.22,0.5-0.5s-0.22-0.5-0.5-0.5h-9.26V6.74h8.76v7.24c0,0.28,0.22,0.5,0.5,0.5
			s0.5-0.22,0.5-0.5V6.74h6.21v24.83h-6.02v-1.53c0-0.28-0.22-0.5-0.5-0.5s-0.5,0.22-0.5,0.5v1.53H19.74z"/>
		<path class="st0" d="M65.96,6.05c-0.08-0.19-0.26-0.31-0.46-0.31H38.47c-0.28,0-0.5,0.22-0.5,0.5v27.4c0,0.2,0.12,0.39,0.31,0.46
			c0.06,0.02,0.13,0.04,0.19,0.04c0.13,0,0.26-0.05,0.36-0.15l27.03-27.4C66,6.45,66.04,6.23,65.96,6.05z M38.97,32.42v-6.57h1.11
			c0.28,0,0.5-0.22,0.5-0.5s-0.22-0.5-0.5-0.5h-1.11v-3.7h1.11c0.28,0,0.5-0.22,0.5-0.5s-0.22-0.5-0.5-0.5h-1.11v-3.7h1.11
			c0.28,0,0.5-0.22,0.5-0.5s-0.22-0.5-0.5-0.5h-1.11v-3.7h1.11c0.28,0,0.5-0.22,0.5-0.5s-0.22-0.5-0.5-0.5h-1.11V6.74H64.3
			L38.97,32.42z"/>
		<path class="st0" d="M42.93,22.41c0.06,0.02,0.13,0.04,0.19,0.04c0.13,0,0.26-0.05,0.36-0.15l10.54-10.68
			c0.14-0.14,0.18-0.36,0.11-0.54c-0.08-0.19-0.26-0.31-0.46-0.31H43.12c-0.28,0-0.5,0.22-0.5,0.5v10.68
			C42.62,22.15,42.74,22.33,42.93,22.41z M43.62,11.76h8.84l-8.84,8.96V11.76z"/>
	</g>
</g>
</svg>
