<?xml version="1.0" encoding="utf-8"?>
<!-- Generator: Adobe Illustrator 24.0.0, SVG Export Plug-In . SVG Version: 6.00 Build 0)  -->
<svg version="1.1" id="Слой_1" xmlns="http://www.w3.org/2000/svg" xmlns:xlink="http://www.w3.org/1999/xlink" x="0px" y="0px"
	 viewBox="0 0 66 66" style="enable-background:new 0 0 66 66;" xml:space="preserve">
<style type="text/css">
	.st0{fill:#5CFF60;}
</style>
<g>
	<g>
		<path class="st0" d="M47,4.7c0,0.3,0.3,0.5,0.6,0.4c0.3,0,0.5-0.3,0.4-0.6C47.6,2,45.4,0,42.8,0H5.2C2.3,0,0,2.3,0,5.2v29.1
			c0,2.9,2.3,5.2,5.2,5.2h37.5c2.9,0,5.2-2.3,5.2-5.2v-7.5c0-0.3-0.2-0.5-0.5-0.5S47,26.5,47,26.8v7.5c0,2.3-1.9,4.2-4.2,4.2H5.2
			c-2.3,0-4.2-1.9-4.2-4.2v-29C1,3,2.9,1.1,5.2,1.1h37.5C44.9,1,46.7,2.6,47,4.7z"/>
		<path class="st0" d="M25.3,34.6c0.3,0,0.5-0.2,0.5-0.5v-1.5h6.5c0.3,0,0.5-0.2,0.5-0.5V6.3c0-0.3-0.2-0.5-0.5-0.5h-26
			C6,5.8,5.8,6,5.8,6.3v5H5c-0.3,0-0.5,0.2-0.5,0.5s0.2,0.5,0.5,0.5h2.6c0.3,0,0.5-0.2,0.5-0.5S8,11.3,7.7,11.3H6.9V6.8h8v17.1h-8
			v-4.2h0.8c0.3,0,0.5-0.2,0.5-0.5S8,18.7,7.7,18.7H5c-0.3,0-0.5,0.2-0.5,0.5s0.2,0.5,0.5,0.5h0.8v12.4c0,0.3,0.2,0.5,0.5,0.5h12.4
			v1.5c0,0.3,0.2,0.5,0.5,0.5s0.5-0.2,0.5-0.5v-1.5h5.1v1.5C24.8,34.4,25,34.6,25.3,34.6z M19.7,31.6v-1.5c0-0.3-0.2-0.5-0.5-0.5
			s-0.5,0.2-0.5,0.5v1.5H6.9v-6.7h8.5c0.3,0,0.5-0.2,0.5-0.5v-4h9.3c0.3,0,0.5-0.2,0.5-0.5s-0.2-0.5-0.5-0.5h-9.3V6.8h8.8V14
			c0,0.3,0.2,0.5,0.5,0.5s0.5-0.2,0.5-0.5V6.8h6.2v24.8h-6v-1.5c0-0.3-0.2-0.5-0.5-0.5s-0.5,0.2-0.5,0.5v1.5H19.7z"/>
		<path class="st0" d="M66,6.1c-0.1-0.2-0.3-0.3-0.5-0.3h-27C38.2,5.8,38,6,38,6.3v27.4c0,0.2,0.1,0.4,0.3,0.5c0.1,0,0.1,0,0.2,0
			c0.1,0,0.3-0.1,0.4-0.2l27-27.4C66,6.5,66,6.3,66,6.1z M39,32.5v-6.6h1.1c0.3,0,0.5-0.2,0.5-0.5s-0.2-0.5-0.5-0.5H39v-3.7h1.1
			c0.3,0,0.5-0.2,0.5-0.5s-0.2-0.5-0.5-0.5H39v-3.7h1.1c0.3,0,0.5-0.2,0.5-0.5s-0.2-0.5-0.5-0.5H39v-3.7h1.1c0.3,0,0.5-0.2,0.5-0.5
			s-0.2-0.5-0.5-0.5H39v-4h25.3L39,32.5z"/>
		<path class="st0" d="M42.9,22.5c0.1,0,0.1,0,0.2,0c0.1,0,0.3,0,0.4-0.1L54,11.7c0.1-0.1,0.2-0.4,0.1-0.5c-0.1-0.3-0.2-0.4-0.4-0.4
			H43.1c-0.3,0-0.5,0.2-0.5,0.5V22C42.6,22.2,42.7,22.4,42.9,22.5z M43.6,11.8h8.8l-8.8,9V11.8z"/>
	</g>
</g>
</svg>
