<?xml version="1.0" encoding="utf-8"?>
<!-- Generator: Adobe Illustrator 24.0.0, SVG Export Plug-In . SVG Version: 6.00 Build 0)  -->
<svg version="1.1" id="Слой_1" xmlns="http://www.w3.org/2000/svg" xmlns:xlink="http://www.w3.org/1999/xlink" x="0px" y="0px"
	 viewBox="0 0 60 72" style="enable-background:new 0 0 60 72;" xml:space="preserve">
<style type="text/css">
	.st0{fill:#5CFF60;}
</style>
<g>
	<g>
		<path class="st0" d="M59.4,41.6c-0.3,0-0.5,0.2-0.5,0.5c0,1.5-1.2,2.7-2.7,2.7c-0.3,0-0.5,0.2-0.5,0.5s0.2,0.5,0.5,0.5
			c2,0,3.7-1.6,3.7-3.7C59.9,41.8,59.7,41.6,59.4,41.6z"/>
		<path class="st0" d="M59.4,12c-0.3,0-0.5,0.2-0.5,0.5v21.8c0,0.3,0.2,0.5,0.5,0.5s0.5-0.2,0.5-0.5V12.5C59.9,12.2,59.7,12,59.4,12
			z"/>
		<path class="st0" d="M58.9,3.6c0,0.3,0.2,0.5,0.5,0.5s0.5-0.2,0.5-0.5c0-2-1.6-3.6-3.7-3.6H17.3c-0.3,0-0.5,0.2-0.5,0.5
			S17,1,17.3,1h39C57.7,1,58.9,2.2,58.9,3.6z"/>
		<path class="st0" d="M44.8,44.8H3.8c-1.5,0-2.7-1.2-2.7-2.7V3.6C1.1,2.2,2.3,1,3.8,1h2.5c0.3,0,0.5-0.2,0.5-0.5S6.5,0,6.2,0H3.8
			c-2,0-3.7,1.6-3.7,3.6v38.5c0,2,1.6,3.7,3.7,3.7h41.1c0.3,0,0.5-0.2,0.5-0.5S45.1,44.8,44.8,44.8z"/>
		<path class="st0" d="M52.9,14H8.5c-1.5,0-2.8,1.2-2.8,2.8v6.7c0,1.5,1.2,2.8,2.8,2.8h44.5c1.5,0,2.8-1.2,2.8-2.8v-6.7
			C55.7,15.2,54.5,14,52.9,14z M54.7,23.4c0,1-0.8,1.8-1.8,1.8H8.5c-1,0-1.8-0.8-1.8-1.8v-6.7c0-1,0.8-1.8,1.8-1.8h44.5
			c1,0,1.8,0.8,1.8,1.8L54.7,23.4L54.7,23.4z"/>
		<path class="st0" d="M8.5,41.6H18c1.5,0,2.8-1.2,2.8-2.8v-6.7c0-1.5-1.2-2.8-2.8-2.8H8.5c-1.5,0-2.8,1.2-2.8,2.8v6.7
			C5.7,40.3,6.9,41.6,8.5,41.6z M6.7,32.1c0-1,0.8-1.8,1.8-1.8H18c1,0,1.8,0.8,1.8,1.8v6.7c0,1-0.8,1.8-1.8,1.8H8.5
			c-1,0-1.8-0.8-1.8-1.8V32.1z"/>
		<path class="st0" d="M35.5,41.6c1.5,0,2.8-1.2,2.8-2.8v-6.7c0-1.5-1.2-2.8-2.8-2.8H26c-1.5,0-2.8,1.2-2.8,2.8v6.7
			c0,1.5,1.2,2.8,2.8,2.8H35.5z M24.2,38.8v-6.7c0-1,0.8-1.8,1.8-1.8h9.5c1,0,1.8,0.8,1.8,1.8v6.7c0,1-0.8,1.8-1.8,1.8H26
			C25,40.6,24.2,39.8,24.2,38.8z"/>
		<path class="st0" d="M52.9,29.4h-9.5c-1.5,0-2.8,1.2-2.8,2.8v6.7c0,1.5,1.2,2.8,2.8,2.8h9.5c1.5,0,2.8-1.2,2.8-2.8v-6.7
			C55.7,30.6,54.5,29.4,52.9,29.4z M54.7,38.8c0,1-0.8,1.8-1.8,1.8h-9.5c-1,0-1.8-0.8-1.8-1.8v-6.7c0-1,0.8-1.8,1.8-1.8h9.5
			c1,0,1.8,0.8,1.8,1.8C54.7,32.1,54.7,38.8,54.7,38.8z"/>
		<path class="st0" d="M6.2,7C5.9,7,5.7,7.2,5.7,7.5S5.9,8,6.2,8h11.2c0.3,0,0.5-0.2,0.5-0.5S17.7,7,17.4,7H6.2z"/>
		<path class="st0" d="M28.6,7c-0.3,0-0.5,0.2-0.5,0.5S28.3,8,28.6,8h4.2c0.3,0,0.5-0.2,0.5-0.5S33.1,7,32.8,7H28.6z"/>
		<path class="st0" d="M39.8,7c-0.3,0-0.5,0.2-0.5,0.5S39.5,8,39.8,8H44c0.3,0,0.5-0.2,0.5-0.5S44.3,7,44,7H39.8z"/>
		<path class="st0" d="M55.2,7H51c-0.3,0-0.5,0.2-0.5,0.5S50.7,8,51,8h4.2c0.3,0,0.5-0.2,0.5-0.5S55.5,7,55.2,7z"/>
	</g>
</g>
</svg>
